<svg width="184" height="323" viewBox="0 0 184 323" fill="none" xmlns="http://www.w3.org/2000/svg">
<path d="M22 322.634V61.1342M22 61.1342C23.6804 44.9314 31.3769 12.1248 48.719 10.5212C66.0612 8.91767 78.7989 3.50559 83 0.999992C81.9917 12.5257 76.8496 37.7821 64.3471 46.6018C51.8446 55.4215 30.9063 59.9649 22 61.1342Z" stroke="#303C66"/>
<path d="M13 141C19 141 21.5 150.333 22 155C21 155 17.4 154.5 11 152.5C4.6 150.5 1.66667 142 1 138C2.5 139 7 141 13 141Z" stroke="#303C66"/>
<path d="M156 322.5V238M156 238C156.167 230.5 154.3 215.4 145.5 215C136.7 214.6 126.833 212.833 123 212C123.167 217.667 125.7 229.5 134.5 231.5C143.3 233.5 152.5 236.667 156 238Z" stroke="#303C66"/>
<path d="M170 268C164.4 268.4 158.333 275.5 156 279H170C175.2 279 180.833 271.667 183 268C181 267.833 175.6 267.6 170 268Z" stroke="#303C66"/>
<path d="M39.4064 225.699C32.2506 228.382 24.8219 240.501 22.002 246.226C23.6153 245.808 29.2331 243.834 38.798 239.287C48.3629 234.741 56.7406 224.82 59.7339 220.428C55.9396 221.067 46.5622 223.017 39.4064 225.699Z" stroke="#2E4080"/>
</svg>
