<?xml version="1.0" encoding="UTF-8" standalone="no"?>
<!-- Created with Inkscape (http://www.inkscape.org/) -->

<svg
   xmlns:dc="http://purl.org/dc/elements/1.1/"
   xmlns:cc="http://creativecommons.org/ns#"
   xmlns:rdf="http://www.w3.org/1999/02/22-rdf-syntax-ns#"
   xmlns:svg="http://www.w3.org/2000/svg"
   xmlns="http://www.w3.org/2000/svg"
   xmlns:sodipodi="http://sodipodi.sourceforge.net/DTD/sodipodi-0.dtd"
   xmlns:inkscape="http://www.inkscape.org/namespaces/inkscape"
   width="1241.5826"
   height="736.47705"
   viewBox="0 0 328.50207 194.85956"
   version="1.1"
   id="svg8"
   inkscape:version="0.92.3 (2405546, 2018-03-11)"
   sodipodi:docname="007error.svg">
  <defs
     id="defs2" />
  <sodipodi:namedview
     id="base"
     pagecolor="#ffffff"
     bordercolor="#666666"
     borderopacity="1.0"
     inkscape:pageopacity="0.0"
     inkscape:pageshadow="2"
     inkscape:zoom="0.98994949"
     inkscape:cx="577.98071"
     inkscape:cy="644.32776"
     inkscape:document-units="mm"
     inkscape:current-layer="layer1"
     showgrid="true"
     inkscape:window-width="1920"
     inkscape:window-height="965"
     inkscape:window-x="0"
     inkscape:window-y="35"
     inkscape:window-maximized="1"
     inkscape:snap-nodes="true"
     fit-margin-top="0"
     fit-margin-left="0"
     fit-margin-right="0"
     fit-margin-bottom="0"
     units="px" />
  <metadata
     id="metadata5">
    <rdf:RDF>
      <cc:Work
         rdf:about="">
        <dc:format>image/svg+xml</dc:format>
        <dc:type
           rdf:resource="http://purl.org/dc/dcmitype/StillImage" />
        <dc:title />
      </cc:Work>
    </rdf:RDF>
  </metadata>
  <g
     inkscape:label="Layer 1"
     inkscape:groupmode="layer"
     id="layer1"
     transform="translate(59.469692,-46.508221)">
    <rect
       style="opacity:1;fill:#f1eeee;fill-opacity:1;stroke:none;stroke-width:1.56885231;stroke-linecap:butt;stroke-linejoin:round;stroke-miterlimit:4;stroke-dasharray:none;stroke-opacity:1"
       id="rect815"
       width="328.50208"
       height="194.85956"
       x="-59.469692"
       y="46.508221" />
    <g
       aria-label="404..."
       style="font-style:normal;font-weight:normal;font-size:15.59364223px;line-height:1.25;font-family:sans-serif;letter-spacing:0px;word-spacing:0px;fill:#cf0505;fill-opacity:1;stroke:none;stroke-width:0.38984102"
       id="text886">
      <path
         d="m 122.15748,78.558566 h -0.0749 l -6.54933,12.94896 v 0.07485 h 6.62418 z m 0,15.755816 h -9.46846 v -3.143679 l 9.09421,-17.92645 h 3.44308 v 18.338123 h 3.1811 v 2.732006 h -3.1811 v 6.624178 h -3.06883 z"
         style="font-style:normal;font-variant:normal;font-weight:normal;font-stretch:normal;font-size:37.42473984px;font-family:'VL Gothic';-inkscape-font-specification:'VL Gothic';fill:#cf0505;fill-opacity:1;stroke-width:0.38984102"
         id="path947" />
      <path
         d="m 136.19176,73.917898 q 1.27244,-0.673645 3.06883,-0.673645 1.79638,0 3.06883,0.673645 1.27244,0.673646 2.20806,2.245485 0.93561,1.571839 1.38471,4.34127 0.4491,2.732006 0.4491,6.773877 0,4.041872 -0.4491,6.811303 -0.4491,2.732006 -1.38471,4.303845 -0.93562,1.571839 -2.20806,2.245482 -1.27245,0.67365 -3.06883,0.67365 -1.79639,0 -3.06883,-0.67365 -1.27244,-0.673643 -2.20806,-2.245482 -0.93562,-1.571839 -1.38472,-4.303845 -0.44909,-2.769431 -0.44909,-6.811303 0,-4.041871 0.44909,-6.773877 0.4491,-2.769431 1.38472,-4.34127 0.93562,-1.571839 2.20806,-2.245485 z m -0.97305,17.701902 7.33525,-12.686987 q -0.97304,-3.068828 -3.29337,-3.068828 -1.34729,0 -2.24549,0.973043 -0.89819,0.973043 -1.42214,3.55535 -0.52394,2.582307 -0.52394,6.886152 0,1.871237 0.14969,4.34127 z m 0.5988,3.517926 q 0.97304,3.55535 3.44308,3.55535 1.34729,0 2.24548,-0.973043 0.89819,-0.973043 1.42214,-3.55535 0.52395,-2.582307 0.52395,-6.886153 0,-2.881705 -0.22455,-4.97749 z"
         style="font-style:normal;font-variant:normal;font-weight:normal;font-stretch:normal;font-size:37.42473984px;font-family:'VL Gothic';-inkscape-font-specification:'VL Gothic';fill:#cf0505;fill-opacity:1;stroke-width:0.38984102"
         id="path949" />
      <path
         d="m 159.58222,78.558566 h -0.0748 l -6.54933,12.94896 v 0.07485 h 6.62418 z m 0,15.755816 h -9.46846 v -3.143679 l 9.09421,-17.92645 h 3.44308 v 18.338123 h 3.1811 v 2.732006 h -3.1811 v 6.624178 h -3.06883 z"
         style="font-style:normal;font-variant:normal;font-weight:normal;font-stretch:normal;font-size:37.42473984px;font-family:'VL Gothic';-inkscape-font-specification:'VL Gothic';fill:#cf0505;fill-opacity:1;stroke-width:0.38984102"
         id="path951" />
      <path
         d="m 174.25272,100.93856 v -5.61371 h 4.86521 v 5.61371 z"
         style="font-style:normal;font-variant:normal;font-weight:normal;font-stretch:normal;font-size:37.42473984px;font-family:'VL Gothic';-inkscape-font-specification:'VL Gothic';fill:#cf0505;fill-opacity:1;stroke-width:0.38984102"
         id="path953" />
      <path
         d="m 192.96509,100.93856 v -5.61371 h 4.86521 v 5.61371 z"
         style="font-style:normal;font-variant:normal;font-weight:normal;font-stretch:normal;font-size:37.42473984px;font-family:'VL Gothic';-inkscape-font-specification:'VL Gothic';fill:#cf0505;fill-opacity:1;stroke-width:0.38984102"
         id="path955" />
      <path
         d="m 211.67746,100.93856 v -5.61371 h 4.86522 v 5.61371 z"
         style="font-style:normal;font-variant:normal;font-weight:normal;font-stretch:normal;font-size:37.42473984px;font-family:'VL Gothic';-inkscape-font-specification:'VL Gothic';fill:#cf0505;fill-opacity:1;stroke-width:0.38984102"
         id="path957" />
    </g>
    <g
       aria-label="Page not found"
       style="font-style:normal;font-weight:normal;font-size:16.48454094px;line-height:1.25;font-family:sans-serif;letter-spacing:0px;word-spacing:0px;fill:#be1616;fill-opacity:1;stroke:none;stroke-width:0.41211349"
       id="text914">
      <path
         d="m 118.73285,111.91038 q 0,-1.21546 -0.55388,-1.75396 -0.55389,-0.55388 -1.72319,-0.55388 -0.63081,0 -1.07699,0.12309 v 4.49258 q 0.46157,0.0769 1.07699,0.0769 1.18469,0 1.72319,-0.5385 0.55388,-0.55388 0.55388,-1.84626 z m 1.23084,0 q 0,1.84626 -0.81543,2.6617 -0.80005,0.80005 -2.53862,0.80005 -0.5385,0 -1.23085,-0.0769 v 4.61567 h -1.26162 v -11.15454 q 1.20008,-0.23078 2.4617,-0.23078 1.75395,0 2.56939,0.81544 0.81543,0.80005 0.81543,2.56939 z"
         style="font-style:normal;font-variant:normal;font-weight:normal;font-stretch:normal;font-size:15.38557148px;font-family:'VL Gothic';-inkscape-font-specification:'VL Gothic';fill:#be1616;fill-opacity:1;stroke-width:0.41211349"
         id="path922" />
      <path
         d="m 124.57936,111.75652 q 1.53856,0 2.10783,0.61542 0.58465,0.61543 0.58465,2.30784 v 5.23109 h -1.10776 l -0.0308,-1.15391 h -0.0308 q -0.72312,1.30777 -2.29245,1.30777 -1.00006,0 -1.61548,-0.63081 -0.61542,-0.64619 -0.61542,-1.75395 0,-1.40009 0.93852,-2.15398 0.9539,-0.76928 2.83094,-0.76928 h 0.73851 v -0.38464 q 0,-0.87698 -0.33848,-1.23085 -0.33849,-0.35387 -1.16931,-0.35387 -0.50772,0 -1.29238,0.18463 -0.78467,0.18463 -1.32316,0.4308 v -1.10776 q 0.53849,-0.23079 1.30777,-0.38464 0.76928,-0.15386 1.30777,-0.15386 z m 1.50779,3.92332 h -0.73851 q -2.61555,0 -2.61555,1.9232 0,0.69235 0.35387,1.0616 0.35387,0.36926 0.95391,0.36926 0.90775,0 1.47701,-0.73851 0.56927,-0.73851 0.56927,-2.07705 z"
         style="font-style:normal;font-variant:normal;font-weight:normal;font-stretch:normal;font-size:15.38557148px;font-family:'VL Gothic';-inkscape-font-specification:'VL Gothic';fill:#be1616;fill-opacity:1;stroke-width:0.41211349"
         id="path924" />
      <path
         d="m 129.11811,115.91062 q 0,-4.1541 2.69247,-4.1541 1.277,0 2.10783,1.30777 h 0.0308 l 0.0308,-1.15391 h 1.13853 v 7.92357 q 0,1.92319 -0.78466,2.7694 -0.76928,0.8462 -2.36938,0.8462 -1.09238,0 -2.15398,-0.38463 v -1.23085 q 1.09237,0.55388 2.15398,0.55388 1.93858,0 1.93858,-2.554 v -1.23085 h -0.0308 q -0.66158,1.30777 -2.06167,1.30777 -1.23084,0 -1.96935,-1.01544 -0.72312,-1.01545 -0.72312,-2.98481 z m 1.21546,0 q 0,1.41548 0.47695,2.1386 0.49234,0.70774 1.30777,0.70774 0.80005,0 1.29239,-0.69236 0.49234,-0.70773 0.49234,-2.07705 v -0.15385 q 0,-1.40009 -0.50772,-2.15398 -0.49234,-0.76928 -1.27701,-0.76928 -0.89236,0 -1.33854,0.72312 -0.44618,0.70774 -0.44618,2.27706 z"
         style="font-style:normal;font-variant:normal;font-weight:normal;font-stretch:normal;font-size:15.38557148px;font-family:'VL Gothic';-inkscape-font-specification:'VL Gothic';fill:#be1616;fill-opacity:1;stroke-width:0.41211349"
         id="path926" />
      <path
         d="m 138.16482,116.31065 q 0.0616,1.43086 0.58466,2.06167 0.5231,0.6308 1.52317,0.6308 0.93852,0 2.07705,-0.55388 v 1.23085 q -1.13853,0.38464 -2.15398,0.38464 -3.3079,0 -3.3079,-4.15411 0,-2.16936 0.76928,-3.15404 0.76928,-1.00006 2.30784,-1.00006 1.40008,0 2.07705,0.95391 0.69235,0.9539 0.69235,3.12327 0,0.16924 -0.0308,0.47695 z m 0,-1.01545 h 3.35406 q -0.0154,-2.47708 -1.55394,-2.47708 -0.87698,0 -1.30778,0.55389 -0.43079,0.55388 -0.49234,1.92319 z"
         style="font-style:normal;font-variant:normal;font-weight:normal;font-stretch:normal;font-size:15.38557148px;font-family:'VL Gothic';-inkscape-font-specification:'VL Gothic';fill:#be1616;fill-opacity:1;stroke-width:0.41211349"
         id="path928" />
      <path
         d="m 158.19684,114.83363 v 5.07724 h -1.18469 v -4.80029 q 0,-1.35394 -0.30771,-1.80012 -0.30772,-0.46156 -1.12315,-0.46156 -0.76928,0 -1.32316,0.86159 -0.53849,0.86159 -0.53849,2.32322 v 3.87716 h -1.21546 v -8.00049 h 1.13853 l 0.0308,1.15391 h 0.0308 q 0.29233,-0.58465 0.89236,-0.93852 0.60004,-0.36925 1.29239,-0.36925 1.21546,0 1.75396,0.70774 0.55388,0.69235 0.55388,2.36937 z"
         style="font-style:normal;font-variant:normal;font-weight:normal;font-stretch:normal;font-size:15.38557148px;font-family:'VL Gothic';-inkscape-font-specification:'VL Gothic';fill:#be1616;fill-opacity:1;stroke-width:0.41211349"
         id="path930" />
      <path
         d="m 159.88925,115.91062 q 0,-4.1541 3.07712,-4.1541 3.07711,0 3.07711,4.1541 0,4.15411 -3.07711,4.15411 -3.07712,0 -3.07712,-4.15411 z m 1.69241,2.40015 q 0.44619,0.69235 1.38471,0.69235 0.93851,0 1.36931,-0.69235 0.44618,-0.70773 0.44618,-2.40015 0,-1.69241 -0.44618,-2.38476 -0.4308,-0.70774 -1.36931,-0.70774 -0.93852,0 -1.38471,0.70774 -0.43079,0.69235 -0.43079,2.38476 0,1.69242 0.43079,2.40015 z"
         style="font-style:normal;font-variant:normal;font-weight:normal;font-stretch:normal;font-size:15.38557148px;font-family:'VL Gothic';-inkscape-font-specification:'VL Gothic';fill:#be1616;fill-opacity:1;stroke-width:0.41211349"
         id="path932" />
      <path
         d="m 170.56684,112.21809 h 2.78478 v 1.0616 h -2.78478 v 4.32335 q 0,0.86159 0.24616,1.15392 0.26156,0.27694 1.00007,0.27694 0.76927,0 1.3847,-0.27694 v 1.07699 q -0.73851,0.23078 -1.53856,0.23078 -1.29239,0 -1.80011,-0.49234 -0.50773,-0.50772 -0.50773,-1.8155 v -4.4772 h -1.53855 v -1.0616 h 1.53855 v -2.92326 h 1.21547 z"
         style="font-style:normal;font-variant:normal;font-weight:normal;font-stretch:normal;font-size:15.38557148px;font-family:'VL Gothic';-inkscape-font-specification:'VL Gothic';fill:#be1616;fill-opacity:1;stroke-width:0.41211349"
         id="path934" />
      <path
         d="m 183.35224,113.27969 v -1.0616 h 1.84627 v -0.92314 q 0,-1.50778 0.50773,-2.13859 0.50772,-0.63081 1.64625,-0.63081 0.69235,0 1.3847,0.23078 v 1.10777 q -0.58465,-0.27695 -1.15391,-0.27695 -0.72313,0 -0.95391,0.36926 -0.2154,0.35387 -0.2154,1.64625 v 0.61543 h 2.32322 v 1.0616 h -2.32322 v 6.63118 h -1.21546 v -6.63118 z"
         style="font-style:normal;font-variant:normal;font-weight:normal;font-stretch:normal;font-size:15.38557148px;font-family:'VL Gothic';-inkscape-font-specification:'VL Gothic';fill:#be1616;fill-opacity:1;stroke-width:0.41211349"
         id="path936" />
      <path
         d="m 190.66039,115.91062 q 0,-4.1541 3.07712,-4.1541 3.07711,0 3.07711,4.1541 0,4.15411 -3.07711,4.15411 -3.07712,0 -3.07712,-4.15411 z m 1.69241,2.40015 q 0.44619,0.69235 1.38471,0.69235 0.93852,0 1.36931,-0.69235 0.44618,-0.70773 0.44618,-2.40015 0,-1.69241 -0.44618,-2.38476 -0.43079,-0.70774 -1.36931,-0.70774 -0.93852,0 -1.38471,0.70774 -0.43079,0.69235 -0.43079,2.38476 0,1.69242 0.43079,2.40015 z"
         style="font-style:normal;font-variant:normal;font-weight:normal;font-stretch:normal;font-size:15.38557148px;font-family:'VL Gothic';-inkscape-font-specification:'VL Gothic';fill:#be1616;fill-opacity:1;stroke-width:0.41211349"
         id="path938" />
      <path
         d="m 198.58396,117.14147 v -5.23109 h 1.18469 v 4.95415 q 0,1.277 0.27694,1.69241 0.29233,0.41541 1.07699,0.41541 0.75389,0 1.26162,-0.8462 0.52311,-0.84621 0.52311,-2.33861 v -3.87716 h 1.21546 v 8.00049 h -1.13853 l -0.0308,-1.15391 h -0.0308 q -0.29232,0.61542 -0.86159,0.96929 -0.56926,0.33848 -1.24623,0.33848 -1.18469,0 -1.7078,-0.66158 -0.52311,-0.66158 -0.52311,-2.26168 z"
         style="font-style:normal;font-variant:normal;font-weight:normal;font-stretch:normal;font-size:15.38557148px;font-family:'VL Gothic';-inkscape-font-specification:'VL Gothic';fill:#be1616;fill-opacity:1;stroke-width:0.41211349"
         id="path940" />
      <path
         d="m 212.04634,114.83363 v 5.07724 h -1.18469 v -4.80029 q 0,-1.35394 -0.30771,-1.80012 -0.30771,-0.46156 -1.12315,-0.46156 -0.76928,0 -1.32316,0.86159 -0.53849,0.86159 -0.53849,2.32322 v 3.87716 h -1.21546 v -8.00049 h 1.13853 l 0.0308,1.15391 h 0.0308 q 0.29233,-0.58465 0.89237,-0.93852 0.60003,-0.36925 1.29238,-0.36925 1.21546,0 1.75396,0.70774 0.55388,0.69235 0.55388,2.36937 z"
         style="font-style:normal;font-variant:normal;font-weight:normal;font-stretch:normal;font-size:15.38557148px;font-family:'VL Gothic';-inkscape-font-specification:'VL Gothic';fill:#be1616;fill-opacity:1;stroke-width:0.41211349"
         id="path942" />
      <path
         d="m 218.44674,108.67941 h 1.21546 v 11.23146 h -1.13853 l -0.0308,-1.15391 h -0.0308 q -0.81543,1.30777 -2.10782,1.30777 -1.21546,0 -1.95397,-1.03083 -0.7385,-1.04622 -0.7385,-3.12328 0,-4.1541 2.69247,-4.1541 1.40009,0 2.06167,1.30777 h 0.0308 z m -3.56945,7.23121 q 0,1.50779 0.47695,2.26168 0.49234,0.73851 1.30777,0.73851 0.78467,0 1.277,-0.75389 0.50773,-0.76928 0.50773,-2.16937 v -0.15385 q 0,-1.40009 -0.50773,-2.15398 -0.49233,-0.76928 -1.277,-0.76928 -1.78472,0 -1.78472,3.00018 z"
         style="font-style:normal;font-variant:normal;font-weight:normal;font-stretch:normal;font-size:15.38557148px;font-family:'VL Gothic';-inkscape-font-specification:'VL Gothic';fill:#be1616;fill-opacity:1;stroke-width:0.41211349"
         id="path944" />
    </g>
    <g
       id="g928"
       transform="matrix(1.5575944,0,0,1.5575944,-60.898167,-80.259024)"
       style="opacity:0.60399996">
      <g
         aria-label="Oops! Looks like the page you are"
         style="font-style:normal;font-weight:normal;font-size:10.58333302px;line-height:1.25;font-family:sans-serif;letter-spacing:0px;word-spacing:0px;fill:#000000;fill-opacity:1;stroke:none;stroke-width:0.26458332"
         id="text910">
        <path
           d="m 112.46164,137.52161 q 0,-0.98778 0.41769,-1.51271 0.41769,-0.53058 1.19098,-0.53058 0.41769,0 0.72249,0.14675 0.3048,0.14676 0.50235,0.41769 0.2032,0.26529 0.29916,0.64347 0.096,0.37253 0.096,0.83538 0,0.98777 -0.42333,1.51835 -0.41769,0.52494 -1.19662,0.52494 -0.41205,0 -0.71685,-0.14676 -0.29915,-0.14676 -0.50235,-0.41204 -0.19756,-0.27094 -0.29351,-0.64347 -0.096,-0.37818 -0.096,-0.84102 z m 0.49671,0 q 0,0.32737 0.0621,0.62089 0.0677,0.29351 0.2032,0.51928 0.13547,0.22014 0.34431,0.3556 0.21449,0.12983 0.50236,0.12983 0.52493,0 0.82409,-0.39511 0.29915,-0.40076 0.29915,-1.23049 0,-0.32174 -0.0677,-0.61525 -0.0621,-0.29915 -0.2032,-0.51929 -0.13547,-0.22577 -0.34996,-0.3556 -0.20884,-0.13546 -0.50235,-0.13546 -0.51929,0 -0.81845,0.40075 -0.29351,0.39511 -0.29351,1.22485 z"
           style="font-style:normal;font-variant:normal;font-weight:normal;font-stretch:normal;font-size:5.64444447px;font-family:'PT Sans';-inkscape-font-specification:'PT Sans';stroke-width:0.26458332"
           id="path960" />
        <path
           d="m 116.28064,138.08605 q 0,-0.71684 0.31609,-1.09502 0.32173,-0.38382 0.92004,-0.38382 0.31609,0 0.54751,0.10724 0.23707,0.1016 0.38947,0.29916 0.1524,0.19191 0.22578,0.46849 0.0734,0.27093 0.0734,0.60395 0,0.71685 -0.32173,1.10067 -0.31609,0.37818 -0.9144,0.37818 -0.31609,0 -0.55315,-0.1016 -0.23143,-0.10725 -0.38383,-0.29916 -0.1524,-0.19756 -0.22577,-0.46849 -0.0734,-0.27658 -0.0734,-0.6096 z m 0.46849,0 q 0,0.21449 0.0395,0.41205 0.0451,0.19755 0.13546,0.34431 0.0903,0.14675 0.23707,0.23706 0.14676,0.0903 0.3556,0.0903 0.76765,0.006 0.76765,-1.08373 0,-0.22013 -0.0452,-0.41769 -0.0395,-0.19755 -0.12982,-0.34431 -0.0903,-0.14675 -0.23707,-0.23142 -0.14675,-0.0903 -0.3556,-0.0903 -0.76764,-0.006 -0.76764,1.08373 z"
           style="font-style:normal;font-variant:normal;font-weight:normal;font-stretch:normal;font-size:5.64444447px;font-family:'PT Sans';-inkscape-font-specification:'PT Sans';stroke-width:0.26458332"
           id="path962" />
        <path
           d="m 119.45934,136.67494 h 0.31045 l 0.0847,0.33867 h 0.0226 q 0.12982,-0.19756 0.33302,-0.29916 0.20885,-0.10724 0.47414,-0.10724 0.56444,0 0.84102,0.33302 0.27658,0.33302 0.27658,1.08938 0,0.3556 -0.096,0.64346 -0.0903,0.28223 -0.25964,0.47978 -0.16934,0.19756 -0.41205,0.3048 -0.23706,0.10725 -0.53058,0.10725 -0.20884,0 -0.33302,-0.0282 -0.11853,-0.0226 -0.25964,-0.0847 v 1.17404 h -0.45156 z m 1.14018,0.32738 q -0.28787,0 -0.4572,0.1524 -0.16369,0.14675 -0.23142,0.45155 v 1.39983 q 0.1016,0.079 0.23142,0.12417 0.12982,0.0395 0.34431,0.0395 0.38947,0 0.61525,-0.28786 0.23142,-0.29351 0.23142,-0.85796 0,-0.23142 -0.0395,-0.41769 -0.0395,-0.19191 -0.12983,-0.32173 -0.0847,-0.13547 -0.22577,-0.20884 -0.13547,-0.0734 -0.33867,-0.0734 z"
           style="font-style:normal;font-variant:normal;font-weight:normal;font-stretch:normal;font-size:5.64444447px;font-family:'PT Sans';-inkscape-font-specification:'PT Sans';stroke-width:0.26458332"
           id="path964" />
        <path
           d="m 123.75485,138.72952 q 0,-0.16934 -0.1016,-0.26529 -0.1016,-0.096 -0.254,-0.15805 -0.14675,-0.0677 -0.32737,-0.12417 -0.17498,-0.0621 -0.32738,-0.1524 -0.14676,-0.096 -0.24836,-0.24271 -0.1016,-0.14676 -0.1016,-0.39512 0,-0.4064 0.23142,-0.59266 0.23143,-0.19191 0.64347,-0.19191 0.3048,0 0.508,0.0564 0.20885,0.0508 0.36125,0.12418 l -0.10725,0.37253 q -0.12982,-0.0621 -0.31609,-0.10724 -0.18062,-0.0508 -0.38946,-0.0508 -0.24836,0 -0.36689,0.0847 -0.11289,0.0847 -0.11289,0.29352 0,0.14675 0.1016,0.23142 0.1016,0.079 0.24835,0.14675 0.1524,0.0621 0.32738,0.12418 0.18062,0.0621 0.32738,0.16369 0.1524,0.1016 0.254,0.25964 0.1016,0.1524 0.1016,0.4064 0,0.18063 -0.0621,0.33867 -0.0564,0.15805 -0.18062,0.27093 -0.12418,0.11289 -0.31045,0.17498 -0.18062,0.0677 -0.42897,0.0677 -0.32174,0 -0.54752,-0.0621 -0.22577,-0.0621 -0.37817,-0.14676 l 0.13546,-0.38382 q 0.12983,0.0734 0.33867,0.13547 0.20884,0.0621 0.42333,0.0621 0.24271,0 0.40076,-0.096 0.15804,-0.096 0.15804,-0.34431 z"
           style="font-style:normal;font-variant:normal;font-weight:normal;font-stretch:normal;font-size:5.64444447px;font-family:'PT Sans';-inkscape-font-specification:'PT Sans';stroke-width:0.26458332"
           id="path966" />
        <path
           d="m 125.17655,135.54605 h 0.46849 v 1.95862 l -0.096,0.99343 h -0.27658 l -0.0959,-0.99343 z m -0.096,3.69147 q 0,-0.1524 0.0847,-0.23707 0.0903,-0.0903 0.23706,-0.0903 0.1524,0 0.24272,0.0903 0.0903,0.0847 0.0903,0.23707 0,0.14675 -0.0903,0.23706 -0.0903,0.0903 -0.24272,0.0903 -0.14675,0 -0.23706,-0.0903 -0.0847,-0.0903 -0.0847,-0.23706 z"
           style="font-style:normal;font-variant:normal;font-weight:normal;font-stretch:normal;font-size:5.64444447px;font-family:'PT Sans';-inkscape-font-specification:'PT Sans';stroke-width:0.26458332"
           id="path968" />
        <path
           d="m 130.5064,139.49716 h -2.3368 v -3.95111 h 0.46849 v 3.53342 h 1.86831 z"
           style="font-style:normal;font-variant:normal;font-weight:normal;font-stretch:normal;font-size:5.64444447px;font-family:'PT Sans';-inkscape-font-specification:'PT Sans';stroke-width:0.26458332"
           id="path970" />
        <path
           d="m 130.55711,138.08605 q 0,-0.71684 0.31609,-1.09502 0.32174,-0.38382 0.92005,-0.38382 0.31609,0 0.54751,0.10724 0.23707,0.1016 0.38947,0.29916 0.1524,0.19191 0.22577,0.46849 0.0734,0.27093 0.0734,0.60395 0,0.71685 -0.32173,1.10067 -0.31609,0.37818 -0.9144,0.37818 -0.31609,0 -0.55316,-0.1016 -0.23142,-0.10725 -0.38382,-0.29916 -0.1524,-0.19756 -0.22578,-0.46849 -0.0734,-0.27658 -0.0734,-0.6096 z m 0.46849,0 q 0,0.21449 0.0395,0.41205 0.0452,0.19755 0.13547,0.34431 0.0903,0.14675 0.23707,0.23706 0.14675,0.0903 0.3556,0.0903 0.76764,0.006 0.76764,-1.08373 0,-0.22013 -0.0452,-0.41769 -0.0395,-0.19755 -0.12983,-0.34431 -0.0903,-0.14675 -0.23706,-0.23142 -0.14676,-0.0903 -0.3556,-0.0903 -0.76765,-0.006 -0.76765,1.08373 z"
           style="font-style:normal;font-variant:normal;font-weight:normal;font-stretch:normal;font-size:5.64444447px;font-family:'PT Sans';-inkscape-font-specification:'PT Sans';stroke-width:0.26458332"
           id="path972" />
        <path
           d="m 133.57777,138.08605 q 0,-0.71684 0.31609,-1.09502 0.32174,-0.38382 0.92005,-0.38382 0.31609,0 0.54751,0.10724 0.23706,0.1016 0.38946,0.29916 0.1524,0.19191 0.22578,0.46849 0.0734,0.27093 0.0734,0.60395 0,0.71685 -0.32173,1.10067 -0.31609,0.37818 -0.9144,0.37818 -0.31609,0 -0.55316,-0.1016 -0.23142,-0.10725 -0.38382,-0.29916 -0.1524,-0.19756 -0.22578,-0.46849 -0.0734,-0.27658 -0.0734,-0.6096 z m 0.46849,0 q 0,0.21449 0.0395,0.41205 0.0452,0.19755 0.13547,0.34431 0.0903,0.14675 0.23707,0.23706 0.14675,0.0903 0.3556,0.0903 0.76764,0.006 0.76764,-1.08373 0,-0.22013 -0.0452,-0.41769 -0.0395,-0.19755 -0.12983,-0.34431 -0.0903,-0.14675 -0.23706,-0.23142 -0.14676,-0.0903 -0.3556,-0.0903 -0.76765,-0.006 -0.76765,1.08373 z"
           style="font-style:normal;font-variant:normal;font-weight:normal;font-stretch:normal;font-size:5.64444447px;font-family:'PT Sans';-inkscape-font-specification:'PT Sans';stroke-width:0.26458332"
           id="path974" />
        <path
           d="m 137.46768,138.22716 h -0.25965 v 1.27 h -0.45155 v -3.95111 h 0.45155 v 2.40453 l 0.23143,-0.079 0.87488,-1.19662 h 0.52494 l -0.8636,1.13453 -0.23142,0.18627 0.28222,0.22578 0.94262,1.27564 h -0.5588 z"
           style="font-style:normal;font-variant:normal;font-weight:normal;font-stretch:normal;font-size:5.64444447px;font-family:'PT Sans';-inkscape-font-specification:'PT Sans';stroke-width:0.26458332"
           id="path976" />
        <path
           d="m 140.69921,138.72952 q 0,-0.16934 -0.1016,-0.26529 -0.1016,-0.096 -0.254,-0.15805 -0.14676,-0.0677 -0.32738,-0.12417 -0.17498,-0.0621 -0.32738,-0.1524 -0.14675,-0.096 -0.24835,-0.24271 -0.1016,-0.14676 -0.1016,-0.39512 0,-0.4064 0.23142,-0.59266 0.23142,-0.19191 0.64347,-0.19191 0.3048,0 0.508,0.0564 0.20884,0.0508 0.36124,0.12418 l -0.10724,0.37253 q -0.12982,-0.0621 -0.31609,-0.10724 -0.18062,-0.0508 -0.38947,-0.0508 -0.24835,0 -0.36689,0.0847 -0.11289,0.0847 -0.11289,0.29352 0,0.14675 0.1016,0.23142 0.1016,0.079 0.24836,0.14675 0.1524,0.0621 0.32738,0.12418 0.18062,0.0621 0.32738,0.16369 0.1524,0.1016 0.254,0.25964 0.1016,0.1524 0.1016,0.4064 0,0.18063 -0.0621,0.33867 -0.0565,0.15805 -0.18063,0.27093 -0.12417,0.11289 -0.31044,0.17498 -0.18062,0.0677 -0.42898,0.0677 -0.32173,0 -0.54751,-0.0621 -0.22578,-0.0621 -0.37818,-0.14676 l 0.13547,-0.38382 q 0.12982,0.0734 0.33867,0.13547 0.20884,0.0621 0.42333,0.0621 0.24271,0 0.40076,-0.096 0.15804,-0.096 0.15804,-0.34431 z"
           style="font-style:normal;font-variant:normal;font-weight:normal;font-stretch:normal;font-size:5.64444447px;font-family:'PT Sans';-inkscape-font-specification:'PT Sans';stroke-width:0.26458332"
           id="path978" />
        <path
           d="m 143.85137,138.8029 q 0,0.19755 0.0677,0.28222 0.0677,0.0847 0.19191,0.0847 0.0734,0 0.15805,-0.0113 0.0847,-0.0113 0.19191,-0.0508 l 0.0508,0.3556 q -0.0903,0.0452 -0.254,0.0734 -0.15805,0.0282 -0.27658,0.0282 -0.254,0 -0.41769,-0.14112 -0.16369,-0.14675 -0.16369,-0.49106 v -3.38667 h 0.45156 z"
           style="font-style:normal;font-variant:normal;font-weight:normal;font-stretch:normal;font-size:5.64444447px;font-family:'PT Sans';-inkscape-font-specification:'PT Sans';stroke-width:0.26458332"
           id="path980" />
        <path
           d="m 145.09861,136.67494 h 0.45156 v 2.82222 h -0.45156 z m -0.096,-0.85796 q 0,-0.12982 0.0847,-0.22013 0.0903,-0.0959 0.22578,-0.0959 0.13547,0 0.23142,0.0959 0.096,0.0903 0.096,0.22013 0,0.12983 -0.096,0.21449 -0.096,0.0847 -0.23142,0.0847 -0.13546,0 -0.22578,-0.0847 -0.0847,-0.0847 -0.0847,-0.21449 z"
           style="font-style:normal;font-variant:normal;font-weight:normal;font-stretch:normal;font-size:5.64444447px;font-family:'PT Sans';-inkscape-font-specification:'PT Sans';stroke-width:0.26458332"
           id="path982" />
        <path
           d="m 147.22419,138.22716 h -0.25965 v 1.27 h -0.45155 v -3.95111 h 0.45155 v 2.40453 l 0.23143,-0.079 0.87488,-1.19662 h 0.52494 l -0.8636,1.13453 -0.23142,0.18627 0.28222,0.22578 0.94262,1.27564 h -0.5588 z"
           style="font-style:normal;font-variant:normal;font-weight:normal;font-stretch:normal;font-size:5.64444447px;font-family:'PT Sans';-inkscape-font-specification:'PT Sans';stroke-width:0.26458332"
           id="path984" />
        <path
           d="m 151.20802,139.27138 q -0.16934,0.13547 -0.42898,0.21449 -0.254,0.079 -0.54187,0.079 -0.32173,0 -0.5588,-0.1016 -0.23706,-0.10725 -0.38946,-0.29916 -0.1524,-0.19756 -0.22578,-0.46849 -0.0734,-0.27093 -0.0734,-0.6096 0,-0.72249 0.32173,-1.10067 0.32174,-0.37817 0.92005,-0.37817 0.19191,0 0.38382,0.0451 0.19191,0.0395 0.34431,0.15805 0.1524,0.11853 0.24836,0.33866 0.0959,0.21449 0.0959,0.57009 0,0.18627 -0.0339,0.41205 h -1.81187 q 0,0.24835 0.0508,0.44026 0.0508,0.19191 0.15804,0.32738 0.10725,0.12982 0.27658,0.2032 0.17498,0.0677 0.42334,0.0677 0.19191,0 0.38382,-0.0677 0.19191,-0.0677 0.28786,-0.15804 z m -0.97085,-2.26906 q -0.33302,0 -0.53622,0.17498 -0.19755,0.17497 -0.23707,0.59831 h 1.39983 q 0,-0.42898 -0.16369,-0.59831 -0.16369,-0.17498 -0.46285,-0.17498 z"
           style="font-style:normal;font-variant:normal;font-weight:normal;font-stretch:normal;font-size:5.64444447px;font-family:'PT Sans';-inkscape-font-specification:'PT Sans';stroke-width:0.26458332"
           id="path986" />
        <path
           d="m 153.15191,136.67494 h 0.44027 v -0.5588 l 0.45156,-0.12982 v 0.68862 h 0.76764 v 0.39511 h -0.76764 v 1.56351 q 0,0.29351 0.0734,0.41769 0.0734,0.11853 0.24836,0.11853 0.14675,0 0.24835,-0.0282 0.1016,-0.0339 0.22578,-0.0847 l 0.1016,0.34431 q -0.1524,0.0734 -0.33302,0.11853 -0.18062,0.0452 -0.38947,0.0452 -0.34431,0 -0.48542,-0.19192 -0.14111,-0.19755 -0.14111,-0.65475 v -1.64818 h -0.44027 z"
           style="font-style:normal;font-variant:normal;font-weight:normal;font-stretch:normal;font-size:5.64444447px;font-family:'PT Sans';-inkscape-font-specification:'PT Sans';stroke-width:0.26458332"
           id="path988" />
        <path
           d="m 157.25454,139.49716 v -1.60866 q 0,-0.22014 -0.0282,-0.38383 -0.0226,-0.16933 -0.0903,-0.27657 -0.0677,-0.11289 -0.18627,-0.16934 -0.11289,-0.0564 -0.29915,-0.0564 -0.26529,0 -0.47978,0.17498 -0.21449,0.16933 -0.27658,0.44026 v 1.8796 h -0.45155 v -3.95111 h 0.45155 v 1.44498 h 0.0226 q 0.14675,-0.17498 0.34995,-0.27658 0.20885,-0.10724 0.51365,-0.10724 0.23707,0 0.41204,0.0564 0.17498,0.0508 0.28787,0.18627 0.11853,0.13546 0.16933,0.36689 0.0564,0.22577 0.0564,0.57573 v 1.70462 z"
           style="font-style:normal;font-variant:normal;font-weight:normal;font-stretch:normal;font-size:5.64444447px;font-family:'PT Sans';-inkscape-font-specification:'PT Sans';stroke-width:0.26458332"
           id="path990" />
        <path
           d="m 160.5897,139.27138 q -0.16933,0.13547 -0.42897,0.21449 -0.254,0.079 -0.54187,0.079 -0.32173,0 -0.5588,-0.1016 -0.23707,-0.10725 -0.38947,-0.29916 -0.1524,-0.19756 -0.22577,-0.46849 -0.0734,-0.27093 -0.0734,-0.6096 0,-0.72249 0.32173,-1.10067 0.32173,-0.37817 0.92005,-0.37817 0.19191,0 0.38382,0.0451 0.19191,0.0395 0.34431,0.15805 0.1524,0.11853 0.24835,0.33866 0.096,0.21449 0.096,0.57009 0,0.18627 -0.0339,0.41205 h -1.81186 q 0,0.24835 0.0508,0.44026 0.0508,0.19191 0.15804,0.32738 0.10725,0.12982 0.27658,0.2032 0.17498,0.0677 0.42333,0.0677 0.19191,0 0.38382,-0.0677 0.19192,-0.0677 0.28787,-0.15804 z m -0.97084,-2.26906 q -0.33302,0 -0.53622,0.17498 -0.19756,0.17497 -0.23707,0.59831 h 1.39982 q 0,-0.42898 -0.16369,-0.59831 -0.16368,-0.17498 -0.46284,-0.17498 z"
           style="font-style:normal;font-variant:normal;font-weight:normal;font-stretch:normal;font-size:5.64444447px;font-family:'PT Sans';-inkscape-font-specification:'PT Sans';stroke-width:0.26458332"
           id="path992" />
        <path
           d="m 162.90613,136.67494 h 0.31044 l 0.0847,0.33867 h 0.0226 q 0.12982,-0.19756 0.33302,-0.29916 0.20885,-0.10724 0.47413,-0.10724 0.56445,0 0.84103,0.33302 0.27657,0.33302 0.27657,1.08938 0,0.3556 -0.0959,0.64346 -0.0903,0.28223 -0.25965,0.47978 -0.16933,0.19756 -0.41204,0.3048 -0.23707,0.10725 -0.53058,0.10725 -0.20884,0 -0.33302,-0.0282 -0.11853,-0.0226 -0.25964,-0.0847 v 1.17404 h -0.45156 z m 1.14018,0.32738 q -0.28787,0 -0.4572,0.1524 -0.16369,0.14675 -0.23142,0.45155 v 1.39983 q 0.1016,0.079 0.23142,0.12417 0.12982,0.0395 0.34431,0.0395 0.38947,0 0.61524,-0.28786 0.23143,-0.29351 0.23143,-0.85796 0,-0.23142 -0.0395,-0.41769 -0.0395,-0.19191 -0.12982,-0.32173 -0.0847,-0.13547 -0.22578,-0.20884 -0.13546,-0.0734 -0.33866,-0.0734 z"
           style="font-style:normal;font-variant:normal;font-weight:normal;font-stretch:normal;font-size:5.64444447px;font-family:'PT Sans';-inkscape-font-specification:'PT Sans';stroke-width:0.26458332"
           id="path994" />
        <path
           d="m 165.91471,136.88378 q 0.21449,-0.12982 0.49671,-0.19191 0.28787,-0.0621 0.59831,-0.0621 0.29351,0 0.46849,0.079 0.18062,0.079 0.27093,0.20884 0.096,0.12418 0.12418,0.27658 0.0339,0.1524 0.0339,0.3048 0,0.33867 -0.0169,0.6604 -0.0169,0.32173 -0.0169,0.6096 0,0.20884 0.0169,0.39511 0.0169,0.18627 0.0621,0.34431 h -0.33302 l -0.11853,-0.39511 h -0.0282 q -0.0508,0.079 -0.12983,0.15804 -0.0734,0.0734 -0.18062,0.13547 -0.10724,0.0565 -0.24835,0.096 -0.14112,0.0395 -0.32174,0.0395 -0.18062,0 -0.33866,-0.0564 -0.1524,-0.0564 -0.26529,-0.15804 -0.11289,-0.10725 -0.18063,-0.254 -0.0621,-0.14676 -0.0621,-0.33302 0,-0.24836 0.1016,-0.41205 0.1016,-0.16933 0.28222,-0.26529 0.18626,-0.1016 0.44026,-0.14111 0.25965,-0.0452 0.57009,-0.0452 0.079,0 0.1524,0 0.079,0 0.15805,0.0113 0.0169,-0.16934 0.0169,-0.3048 0,-0.31045 -0.12418,-0.43463 -0.12417,-0.12417 -0.45155,-0.12417 -0.096,0 -0.20885,0.0169 -0.10724,0.0113 -0.22577,0.0395 -0.11289,0.0226 -0.22014,0.0621 -0.1016,0.0339 -0.18062,0.079 z m 0.80151,2.26343 q 0.15804,0 0.28222,-0.0395 0.12418,-0.0452 0.21449,-0.10725 0.0903,-0.0677 0.14676,-0.14675 0.0621,-0.079 0.0903,-0.1524 v -0.46849 q -0.079,-0.006 -0.16369,-0.006 -0.079,-0.006 -0.15805,-0.006 -0.17497,0 -0.34431,0.0226 -0.16369,0.0169 -0.29351,0.0734 -0.12418,0.0508 -0.2032,0.14676 -0.0734,0.0903 -0.0734,0.23142 0,0.19756 0.14112,0.32738 0.14111,0.12418 0.36124,0.12418 z"
           style="font-style:normal;font-variant:normal;font-weight:normal;font-stretch:normal;font-size:5.64444447px;font-family:'PT Sans';-inkscape-font-specification:'PT Sans';stroke-width:0.26458332"
           id="path996" />
        <path
           d="m 170.92186,139.62698 q 0,0.54752 -0.29351,0.80716 -0.28787,0.25964 -0.85796,0.25964 -0.33867,0 -0.54751,-0.0452 -0.2032,-0.0395 -0.34996,-0.10725 l 0.11854,-0.38382 q 0.12982,0.0508 0.28786,0.096 0.15805,0.0451 0.41205,0.0451 0.23706,0 0.38382,-0.0451 0.1524,-0.0395 0.24271,-0.14111 0.0903,-0.096 0.12418,-0.254 0.0339,-0.1524 0.0339,-0.36689 v -0.27094 h -0.0226 q -0.11289,0.16369 -0.28787,0.254 -0.17498,0.0847 -0.4572,0.0847 -0.57009,0 -0.84102,-0.3556 -0.26529,-0.3556 -0.26529,-1.10631 0,-0.72249 0.34431,-1.09502 0.34431,-0.37818 1.016,-0.37818 0.32173,0 0.54751,0.0508 0.23142,0.0508 0.41205,0.11853 z m -1.13454,-0.46284 q 0.28787,0 0.45156,-0.14111 0.16369,-0.14676 0.23142,-0.45156 v -1.44497 q -0.22578,-0.10725 -0.57573,-0.10725 -0.38382,0 -0.60396,0.25965 -0.22013,0.25964 -0.22013,0.8128 0,0.23706 0.0395,0.43462 0.0395,0.19755 0.12418,0.33866 0.0847,0.14112 0.22013,0.22014 0.13547,0.079 0.33302,0.079 z"
           style="font-style:normal;font-variant:normal;font-weight:normal;font-stretch:normal;font-size:5.64444447px;font-family:'PT Sans';-inkscape-font-specification:'PT Sans';stroke-width:0.26458332"
           id="path998" />
        <path
           d="m 173.85194,139.27138 q -0.16933,0.13547 -0.42898,0.21449 -0.254,0.079 -0.54186,0.079 -0.32174,0 -0.5588,-0.1016 -0.23707,-0.10725 -0.38947,-0.29916 -0.1524,-0.19756 -0.22578,-0.46849 -0.0734,-0.27093 -0.0734,-0.6096 0,-0.72249 0.32173,-1.10067 0.32173,-0.37817 0.92004,-0.37817 0.19191,0 0.38383,0.0451 0.19191,0.0395 0.34431,0.15805 0.1524,0.11853 0.24835,0.33866 0.096,0.21449 0.096,0.57009 0,0.18627 -0.0339,0.41205 h -1.81187 q 0,0.24835 0.0508,0.44026 0.0508,0.19191 0.15805,0.32738 0.10724,0.12982 0.27658,0.2032 0.17497,0.0677 0.42333,0.0677 0.19191,0 0.38382,-0.0677 0.19191,-0.0677 0.28787,-0.15804 z m -0.97084,-2.26906 q -0.33302,0 -0.53622,0.17498 -0.19756,0.17497 -0.23707,0.59831 h 1.39982 q 0,-0.42898 -0.16369,-0.59831 -0.16369,-0.17498 -0.46284,-0.17498 z"
           style="font-style:normal;font-variant:normal;font-weight:normal;font-stretch:normal;font-size:5.64444447px;font-family:'PT Sans';-inkscape-font-specification:'PT Sans';stroke-width:0.26458332"
           id="path1000" />
        <path
           d="m 176.92093,138.50374 0.15805,0.54187 h 0.0282 l 0.12418,-0.54751 0.54751,-1.82316 h 0.4572 l -0.83538,2.53436 q -0.096,0.27657 -0.19191,0.53622 -0.0903,0.25964 -0.2032,0.46284 -0.11289,0.2032 -0.254,0.32174 -0.14111,0.12417 -0.32738,0.12417 -0.2032,0 -0.33302,-0.0564 l 0.079,-0.38947 q 0.0734,0.0282 0.14111,0.0282 0.15805,0 0.3048,-0.16933 0.14676,-0.16369 0.24271,-0.57009 l -1.13453,-2.82222 h 0.51929 z"
           style="font-style:normal;font-variant:normal;font-weight:normal;font-stretch:normal;font-size:5.64444447px;font-family:'PT Sans';-inkscape-font-specification:'PT Sans';stroke-width:0.26458332"
           id="path1002" />
        <path
           d="m 178.50182,138.08605 q 0,-0.71684 0.31609,-1.09502 0.32173,-0.38382 0.92004,-0.38382 0.31609,0 0.54751,0.10724 0.23707,0.1016 0.38947,0.29916 0.1524,0.19191 0.22578,0.46849 0.0734,0.27093 0.0734,0.60395 0,0.71685 -0.32174,1.10067 -0.31609,0.37818 -0.9144,0.37818 -0.31609,0 -0.55315,-0.1016 -0.23142,-0.10725 -0.38382,-0.29916 -0.1524,-0.19756 -0.22578,-0.46849 -0.0734,-0.27658 -0.0734,-0.6096 z m 0.46849,0 q 0,0.21449 0.0395,0.41205 0.0452,0.19755 0.13547,0.34431 0.0903,0.14675 0.23706,0.23706 0.14676,0.0903 0.3556,0.0903 0.76765,0.006 0.76765,-1.08373 0,-0.22013 -0.0452,-0.41769 -0.0395,-0.19755 -0.12982,-0.34431 -0.0903,-0.14675 -0.23707,-0.23142 -0.14675,-0.0903 -0.3556,-0.0903 -0.76764,-0.006 -0.76764,1.08373 z"
           style="font-style:normal;font-variant:normal;font-weight:normal;font-stretch:normal;font-size:5.64444447px;font-family:'PT Sans';-inkscape-font-specification:'PT Sans';stroke-width:0.26458332"
           id="path1004" />
        <path
           d="m 182.08693,136.67494 v 1.60867 q 0,0.22013 0.0226,0.38946 0.0282,0.16369 0.0903,0.27658 0.0621,0.10725 0.16934,0.16369 0.10724,0.0564 0.27093,0.0564 0.1524,0 0.27093,-0.0452 0.11854,-0.0508 0.20885,-0.13547 0.096,-0.0847 0.16369,-0.19191 0.0734,-0.11289 0.11853,-0.23707 v -1.88524 h 0.45156 v 2.02071 q 0,0.2032 0.0113,0.42333 0.0169,0.21449 0.0508,0.37818 h -0.31045 l -0.11289,-0.44591 h -0.0282 q -0.12982,0.22013 -0.34996,0.36689 -0.22013,0.14676 -0.5588,0.14676 -0.22577,0 -0.40075,-0.0564 -0.16933,-0.0508 -0.28787,-0.18627 -0.11289,-0.13546 -0.17498,-0.36124 -0.0564,-0.23142 -0.0564,-0.58138 v -1.70462 z"
           style="font-style:normal;font-variant:normal;font-weight:normal;font-stretch:normal;font-size:5.64444447px;font-family:'PT Sans';-inkscape-font-specification:'PT Sans';stroke-width:0.26458332"
           id="path1006" />
        <path
           d="m 186.1884,136.88378 q 0.21449,-0.12982 0.49671,-0.19191 0.28787,-0.0621 0.59831,-0.0621 0.29351,0 0.46849,0.079 0.18062,0.079 0.27094,0.20884 0.0959,0.12418 0.12417,0.27658 0.0339,0.1524 0.0339,0.3048 0,0.33867 -0.0169,0.6604 -0.0169,0.32173 -0.0169,0.6096 0,0.20884 0.0169,0.39511 0.0169,0.18627 0.0621,0.34431 h -0.33303 l -0.11853,-0.39511 h -0.0282 q -0.0508,0.079 -0.12982,0.15804 -0.0734,0.0734 -0.18063,0.13547 -0.10724,0.0565 -0.24835,0.096 -0.14111,0.0395 -0.32174,0.0395 -0.18062,0 -0.33866,-0.0564 -0.1524,-0.0564 -0.26529,-0.15804 -0.11289,-0.10725 -0.18062,-0.254 -0.0621,-0.14676 -0.0621,-0.33302 0,-0.24836 0.1016,-0.41205 0.1016,-0.16933 0.28222,-0.26529 0.18627,-0.1016 0.44027,-0.14111 0.25964,-0.0452 0.57009,-0.0452 0.079,0 0.1524,0 0.079,0 0.15804,0.0113 0.0169,-0.16934 0.0169,-0.3048 0,-0.31045 -0.12417,-0.43463 -0.12418,-0.12417 -0.45156,-0.12417 -0.096,0 -0.20884,0.0169 -0.10725,0.0113 -0.22578,0.0395 -0.11289,0.0226 -0.22014,0.0621 -0.1016,0.0339 -0.18062,0.079 z m 0.80151,2.26343 q 0.15805,0 0.28222,-0.0395 0.12418,-0.0452 0.21449,-0.10725 0.0903,-0.0677 0.14676,-0.14675 0.0621,-0.079 0.0903,-0.1524 v -0.46849 q -0.079,-0.006 -0.16369,-0.006 -0.079,-0.006 -0.15804,-0.006 -0.17498,0 -0.34431,0.0226 -0.16369,0.0169 -0.29352,0.0734 -0.12417,0.0508 -0.2032,0.14676 -0.0734,0.0903 -0.0734,0.23142 0,0.19756 0.14111,0.32738 0.14111,0.12418 0.36124,0.12418 z"
           style="font-style:normal;font-variant:normal;font-weight:normal;font-stretch:normal;font-size:5.64444447px;font-family:'PT Sans';-inkscape-font-specification:'PT Sans';stroke-width:0.26458332"
           id="path1008" />
        <path
           d="m 190.36582,137.10956 q -0.16933,-0.0564 -0.32173,-0.0564 -0.24271,0 -0.38382,0.13546 -0.14111,0.12983 -0.17498,0.33303 v 1.97555 h -0.45155 v -2.82222 h 0.31608 l 0.0847,0.34431 h 0.0226 q 0.10724,-0.19191 0.254,-0.29351 0.1524,-0.10724 0.38382,-0.10724 0.16369,0 0.36689,0.0564 z"
           style="font-style:normal;font-variant:normal;font-weight:normal;font-stretch:normal;font-size:5.64444447px;font-family:'PT Sans';-inkscape-font-specification:'PT Sans';stroke-width:0.26458332"
           id="path1010" />
        <path
           d="m 193.01219,139.27138 q -0.16934,0.13547 -0.42898,0.21449 -0.254,0.079 -0.54187,0.079 -0.32173,0 -0.5588,-0.1016 -0.23707,-0.10725 -0.38947,-0.29916 -0.1524,-0.19756 -0.22577,-0.46849 -0.0734,-0.27093 -0.0734,-0.6096 0,-0.72249 0.32173,-1.10067 0.32174,-0.37817 0.92005,-0.37817 0.19191,0 0.38382,0.0451 0.19191,0.0395 0.34431,0.15805 0.1524,0.11853 0.24836,0.33866 0.0959,0.21449 0.0959,0.57009 0,0.18627 -0.0339,0.41205 h -1.81186 q 0,0.24835 0.0508,0.44026 0.0508,0.19191 0.15804,0.32738 0.10725,0.12982 0.27658,0.2032 0.17498,0.0677 0.42333,0.0677 0.19191,0 0.38383,-0.0677 0.19191,-0.0677 0.28786,-0.15804 z m -0.97085,-2.26906 q -0.33302,0 -0.53622,0.17498 -0.19756,0.17497 -0.23707,0.59831 h 1.39982 q 0,-0.42898 -0.16368,-0.59831 -0.16369,-0.17498 -0.46285,-0.17498 z"
           style="font-style:normal;font-variant:normal;font-weight:normal;font-stretch:normal;font-size:5.64444447px;font-family:'PT Sans';-inkscape-font-specification:'PT Sans';stroke-width:0.26458332"
           id="path1012" />
      </g>
      <g
         aria-label="looking for does not exist."
         style="font-style:normal;font-weight:normal;font-size:10.58333302px;line-height:1.25;font-family:sans-serif;letter-spacing:0px;word-spacing:0px;fill:#000000;fill-opacity:1;stroke:none;stroke-width:0.26458332"
         id="text918">
        <path
           d="m 113.08253,144.09449 q 0,0.19756 0.0677,0.28222 0.0677,0.0847 0.19192,0.0847 0.0734,0 0.15804,-0.0113 0.0847,-0.0113 0.19191,-0.0508 l 0.0508,0.3556 q -0.0903,0.0452 -0.254,0.0734 -0.15804,0.0282 -0.27658,0.0282 -0.254,0 -0.41769,-0.14111 -0.16368,-0.14676 -0.16368,-0.49107 v -3.38666 h 0.45155 z"
           style="font-style:normal;font-variant:normal;font-weight:normal;font-stretch:normal;font-size:5.64444447px;font-family:'PT Sans';-inkscape-font-specification:'PT Sans';stroke-width:0.26458332"
           id="path1015" />
        <path
           d="m 114.07578,143.37765 q 0,-0.71685 0.31609,-1.09503 0.32173,-0.38382 0.92004,-0.38382 0.31609,0 0.54751,0.10725 0.23707,0.1016 0.38947,0.29915 0.1524,0.19191 0.22578,0.46849 0.0734,0.27093 0.0734,0.60396 0,0.71684 -0.32173,1.10066 -0.31609,0.37818 -0.9144,0.37818 -0.31609,0 -0.55315,-0.1016 -0.23143,-0.10724 -0.38383,-0.29915 -0.1524,-0.19756 -0.22577,-0.46849 -0.0734,-0.27658 -0.0734,-0.6096 z m 0.46849,0 q 0,0.21449 0.0395,0.41204 0.0451,0.19756 0.13546,0.34431 0.0903,0.14676 0.23707,0.23707 0.14676,0.0903 0.3556,0.0903 0.76765,0.006 0.76765,-1.08373 0,-0.22014 -0.0452,-0.41769 -0.0395,-0.19756 -0.12982,-0.34431 -0.0903,-0.14676 -0.23707,-0.23143 -0.14675,-0.0903 -0.3556,-0.0903 -0.76764,-0.006 -0.76764,1.08374 z"
           style="font-style:normal;font-variant:normal;font-weight:normal;font-stretch:normal;font-size:5.64444447px;font-family:'PT Sans';-inkscape-font-specification:'PT Sans';stroke-width:0.26458332"
           id="path1017" />
        <path
           d="m 117.09644,143.37765 q 0,-0.71685 0.31609,-1.09503 0.32173,-0.38382 0.92004,-0.38382 0.31609,0 0.54751,0.10725 0.23707,0.1016 0.38947,0.29915 0.1524,0.19191 0.22578,0.46849 0.0734,0.27093 0.0734,0.60396 0,0.71684 -0.32173,1.10066 -0.31609,0.37818 -0.9144,0.37818 -0.31609,0 -0.55316,-0.1016 -0.23142,-0.10724 -0.38382,-0.29915 -0.1524,-0.19756 -0.22578,-0.46849 -0.0734,-0.27658 -0.0734,-0.6096 z m 0.46849,0 q 0,0.21449 0.0395,0.41204 0.0452,0.19756 0.13546,0.34431 0.0903,0.14676 0.23707,0.23707 0.14676,0.0903 0.3556,0.0903 0.76764,0.006 0.76764,-1.08373 0,-0.22014 -0.0452,-0.41769 -0.0395,-0.19756 -0.12982,-0.34431 -0.0903,-0.14676 -0.23707,-0.23143 -0.14676,-0.0903 -0.3556,-0.0903 -0.76764,-0.006 -0.76764,1.08374 z"
           style="font-style:normal;font-variant:normal;font-weight:normal;font-stretch:normal;font-size:5.64444447px;font-family:'PT Sans';-inkscape-font-specification:'PT Sans';stroke-width:0.26458332"
           id="path1019" />
        <path
           d="m 120.98634,143.51876 h -0.25964 v 1.27 h -0.45156 v -3.95111 h 0.45156 v 2.40453 l 0.23142,-0.079 0.87489,-1.19662 h 0.52493 l -0.8636,1.13453 -0.23142,0.18627 0.28222,0.22577 0.94262,1.27565 h -0.5588 z"
           style="font-style:normal;font-variant:normal;font-weight:normal;font-stretch:normal;font-size:5.64444447px;font-family:'PT Sans';-inkscape-font-specification:'PT Sans';stroke-width:0.26458332"
           id="path1021" />
        <path
           d="m 123.07205,141.96654 h 0.45156 v 2.82222 h -0.45156 z m -0.096,-0.85796 q 0,-0.12982 0.0847,-0.22013 0.0903,-0.096 0.22578,-0.096 0.13547,0 0.23142,0.096 0.096,0.0903 0.096,0.22013 0,0.12982 -0.096,0.21449 -0.096,0.0847 -0.23142,0.0847 -0.13547,0 -0.22578,-0.0847 -0.0847,-0.0847 -0.0847,-0.21449 z"
           style="font-style:normal;font-variant:normal;font-weight:normal;font-stretch:normal;font-size:5.64444447px;font-family:'PT Sans';-inkscape-font-specification:'PT Sans';stroke-width:0.26458332"
           id="path1023" />
        <path
           d="m 126.29829,144.78876 v -1.60867 q 0,-0.44027 -0.12982,-0.6604 -0.12418,-0.22578 -0.46284,-0.22578 -0.29916,0 -0.49672,0.16369 -0.19191,0.15805 -0.27093,0.40076 v 1.9304 h -0.45155 v -2.82222 h 0.31608 l 0.0847,0.34431 h 0.0226 q 0.13547,-0.18063 0.36124,-0.29351 0.23143,-0.11854 0.54751,-0.11854 0.23143,0 0.4064,0.0565 0.17498,0.0508 0.28787,0.18626 0.11853,0.13547 0.17498,0.36689 0.0621,0.22578 0.0621,0.57574 v 1.70462 z"
           style="font-style:normal;font-variant:normal;font-weight:normal;font-stretch:normal;font-size:5.64444447px;font-family:'PT Sans';-inkscape-font-specification:'PT Sans';stroke-width:0.26458332"
           id="path1025" />
        <path
           d="m 129.73505,144.91858 q 0,0.54751 -0.29351,0.80716 -0.28786,0.25964 -0.85795,0.25964 -0.33867,0 -0.54751,-0.0452 -0.2032,-0.0395 -0.34996,-0.10724 l 0.11853,-0.38382 q 0.12983,0.0508 0.28787,0.0959 0.15804,0.0452 0.41204,0.0452 0.23707,0 0.38383,-0.0452 0.1524,-0.0395 0.24271,-0.14111 0.0903,-0.0959 0.12418,-0.254 0.0339,-0.1524 0.0339,-0.36689 v -0.27093 h -0.0226 q -0.11288,0.16369 -0.28786,0.254 -0.17498,0.0847 -0.4572,0.0847 -0.57009,0 -0.84102,-0.3556 -0.26529,-0.3556 -0.26529,-1.10631 0,-0.72249 0.34431,-1.09503 0.34431,-0.37817 1.016,-0.37817 0.32173,0 0.54751,0.0508 0.23142,0.0508 0.41204,0.11853 z m -1.13453,-0.46284 q 0.28787,0 0.45156,-0.14112 0.16368,-0.14675 0.23142,-0.45155 v -1.44498 q -0.22578,-0.10724 -0.57574,-0.10724 -0.38382,0 -0.60395,0.25964 -0.22013,0.25965 -0.22013,0.8128 0,0.23707 0.0395,0.43462 0.0395,0.19756 0.12417,0.33867 0.0847,0.14111 0.22014,0.22013 0.13546,0.079 0.33302,0.079 z"
           style="font-style:normal;font-variant:normal;font-weight:normal;font-stretch:normal;font-size:5.64444447px;font-family:'PT Sans';-inkscape-font-specification:'PT Sans';stroke-width:0.26458332"
           id="path1027" />
        <path
           d="m 131.8048,141.96654 h 0.44027 v -0.15805 q 0,-0.25964 0.0395,-0.45155 0.0452,-0.19192 0.14111,-0.31045 0.0959,-0.12418 0.24835,-0.18062 0.1524,-0.0621 0.37818,-0.0621 0.18062,0 0.31609,0.0226 0.14111,0.0226 0.29351,0.0847 l -0.1016,0.37818 q -0.12982,-0.0564 -0.24835,-0.0734 -0.11289,-0.0169 -0.21449,-0.0169 -0.14676,0 -0.23142,0.0452 -0.079,0.0452 -0.11854,0.13546 -0.0339,0.0847 -0.0452,0.21449 -0.006,0.12418 -0.006,0.29351 v 0.079 h 0.75071 v 0.39511 h -0.75071 v 2.42711 h -0.45155 v -2.42711 h -0.44027 z"
           style="font-style:normal;font-variant:normal;font-weight:normal;font-stretch:normal;font-size:5.64444447px;font-family:'PT Sans';-inkscape-font-specification:'PT Sans';stroke-width:0.26458332"
           id="path1029" />
        <path
           d="m 133.68802,143.37765 q 0,-0.71685 0.31608,-1.09503 0.32174,-0.38382 0.92005,-0.38382 0.31609,0 0.54751,0.10725 0.23707,0.1016 0.38947,0.29915 0.1524,0.19191 0.22577,0.46849 0.0734,0.27093 0.0734,0.60396 0,0.71684 -0.32173,1.10066 -0.31609,0.37818 -0.9144,0.37818 -0.31609,0 -0.55316,-0.1016 -0.23142,-0.10724 -0.38382,-0.29915 -0.1524,-0.19756 -0.22578,-0.46849 -0.0734,-0.27658 -0.0734,-0.6096 z m 0.46848,0 q 0,0.21449 0.0395,0.41204 0.0452,0.19756 0.13546,0.34431 0.0903,0.14676 0.23707,0.23707 0.14675,0.0903 0.3556,0.0903 0.76764,0.006 0.76764,-1.08373 0,-0.22014 -0.0452,-0.41769 -0.0395,-0.19756 -0.12982,-0.34431 -0.0903,-0.14676 -0.23707,-0.23143 -0.14676,-0.0903 -0.3556,-0.0903 -0.76765,-0.006 -0.76765,1.08374 z"
           style="font-style:normal;font-variant:normal;font-weight:normal;font-stretch:normal;font-size:5.64444447px;font-family:'PT Sans';-inkscape-font-specification:'PT Sans';stroke-width:0.26458332"
           id="path1031" />
        <path
           d="m 138.19881,142.40116 q -0.16933,-0.0565 -0.32173,-0.0565 -0.24271,0 -0.38383,0.13547 -0.14111,0.12982 -0.17497,0.33302 v 1.97556 h -0.45156 v -2.82222 h 0.31609 l 0.0847,0.34431 h 0.0226 q 0.10725,-0.19191 0.254,-0.29351 0.1524,-0.10725 0.38383,-0.10725 0.16369,0 0.36689,0.0565 z"
           style="font-style:normal;font-variant:normal;font-weight:normal;font-stretch:normal;font-size:5.64444447px;font-family:'PT Sans';-inkscape-font-specification:'PT Sans';stroke-width:0.26458332"
           id="path1033" />
        <path
           d="m 142.46275,143.81791 q 0,0.28787 0.006,0.52494 0.006,0.23142 0.0508,0.4572 h -0.3048 l -0.11289,-0.40076 h -0.0226 q -0.11289,0.19756 -0.32737,0.32738 -0.21449,0.12982 -0.50236,0.12982 -0.56444,0 -0.84102,-0.3556 -0.27094,-0.3556 -0.27094,-1.11195 0,-0.72249 0.33867,-1.09503 0.34431,-0.37817 0.94262,-0.37817 0.20885,0 0.32738,0.0226 0.12418,0.0226 0.26529,0.0734 v -1.17404 h 0.45156 z m -1.14018,0.64347 q 0.28786,0 0.4572,-0.14676 0.16933,-0.1524 0.23142,-0.4572 v -1.39982 q -0.1016,-0.079 -0.23142,-0.11289 -0.12982,-0.0339 -0.34431,-0.0339 -0.38947,0 -0.6096,0.25964 -0.22014,0.254 -0.22014,0.81845 0,0.23142 0.0339,0.42897 0.0395,0.19756 0.12418,0.33867 0.0847,0.14111 0.22013,0.22578 0.14111,0.079 0.33867,0.079 z"
           style="font-style:normal;font-variant:normal;font-weight:normal;font-stretch:normal;font-size:5.64444447px;font-family:'PT Sans';-inkscape-font-specification:'PT Sans';stroke-width:0.26458332"
           id="path1035" />
        <path
           d="m 143.16892,143.37765 q 0,-0.71685 0.31609,-1.09503 0.32173,-0.38382 0.92004,-0.38382 0.31609,0 0.54751,0.10725 0.23707,0.1016 0.38947,0.29915 0.1524,0.19191 0.22578,0.46849 0.0734,0.27093 0.0734,0.60396 0,0.71684 -0.32174,1.10066 -0.31609,0.37818 -0.9144,0.37818 -0.31609,0 -0.55315,-0.1016 -0.23143,-0.10724 -0.38383,-0.29915 -0.1524,-0.19756 -0.22577,-0.46849 -0.0734,-0.27658 -0.0734,-0.6096 z m 0.46849,0 q 0,0.21449 0.0395,0.41204 0.0452,0.19756 0.13547,0.34431 0.0903,0.14676 0.23706,0.23707 0.14676,0.0903 0.3556,0.0903 0.76765,0.006 0.76765,-1.08373 0,-0.22014 -0.0452,-0.41769 -0.0395,-0.19756 -0.12982,-0.34431 -0.0903,-0.14676 -0.23707,-0.23143 -0.14675,-0.0903 -0.3556,-0.0903 -0.76764,-0.006 -0.76764,1.08374 z"
           style="font-style:normal;font-variant:normal;font-weight:normal;font-stretch:normal;font-size:5.64444447px;font-family:'PT Sans';-inkscape-font-specification:'PT Sans';stroke-width:0.26458332"
           id="path1037" />
        <path
           d="m 148.40785,144.56298 q -0.16934,0.13547 -0.42898,0.21449 -0.254,0.079 -0.54187,0.079 -0.32173,0 -0.5588,-0.1016 -0.23706,-0.10724 -0.38946,-0.29915 -0.1524,-0.19756 -0.22578,-0.46849 -0.0734,-0.27094 -0.0734,-0.6096 0,-0.72249 0.32173,-1.10067 0.32174,-0.37818 0.92005,-0.37818 0.19191,0 0.38382,0.0452 0.19191,0.0395 0.34431,0.15804 0.1524,0.11854 0.24836,0.33867 0.096,0.21449 0.096,0.57009 0,0.18626 -0.0339,0.41204 h -1.81187 q 0,0.24836 0.0508,0.44027 0.0508,0.19191 0.15804,0.32738 0.10725,0.12982 0.27658,0.2032 0.17498,0.0677 0.42333,0.0677 0.19192,0 0.38383,-0.0677 0.19191,-0.0677 0.28786,-0.15805 z m -0.97085,-2.26907 q -0.33302,0 -0.53622,0.17498 -0.19756,0.17498 -0.23707,0.59831 h 1.39983 q 0,-0.42898 -0.16369,-0.59831 -0.16369,-0.17498 -0.46285,-0.17498 z"
           style="font-style:normal;font-variant:normal;font-weight:normal;font-stretch:normal;font-size:5.64444447px;font-family:'PT Sans';-inkscape-font-specification:'PT Sans';stroke-width:0.26458332"
           id="path1039" />
        <path
           d="m 150.45572,144.02111 q 0,-0.16933 -0.1016,-0.26529 -0.1016,-0.0959 -0.254,-0.15804 -0.14676,-0.0677 -0.32738,-0.12418 -0.17498,-0.0621 -0.32738,-0.1524 -0.14675,-0.096 -0.24835,-0.24271 -0.1016,-0.14675 -0.1016,-0.39511 0,-0.4064 0.23142,-0.59267 0.23142,-0.19191 0.64347,-0.19191 0.3048,0 0.508,0.0565 0.20884,0.0508 0.36124,0.12417 l -0.10724,0.37254 q -0.12982,-0.0621 -0.31609,-0.10725 -0.18062,-0.0508 -0.38947,-0.0508 -0.24835,0 -0.36689,0.0847 -0.11289,0.0847 -0.11289,0.29351 0,0.14676 0.1016,0.23142 0.1016,0.079 0.24836,0.14676 0.1524,0.0621 0.32738,0.12418 0.18062,0.0621 0.32738,0.16369 0.1524,0.1016 0.254,0.25964 0.1016,0.1524 0.1016,0.4064 0,0.18062 -0.0621,0.33867 -0.0565,0.15804 -0.18063,0.27093 -0.12417,0.11289 -0.31044,0.17498 -0.18062,0.0677 -0.42898,0.0677 -0.32173,0 -0.54751,-0.0621 -0.22578,-0.0621 -0.37818,-0.14675 l 0.13547,-0.38383 q 0.12982,0.0734 0.33867,0.13547 0.20884,0.0621 0.42333,0.0621 0.24271,0 0.40076,-0.096 0.15804,-0.0959 0.15804,-0.34431 z"
           style="font-style:normal;font-variant:normal;font-weight:normal;font-stretch:normal;font-size:5.64444447px;font-family:'PT Sans';-inkscape-font-specification:'PT Sans';stroke-width:0.26458332"
           id="path1041" />
        <path
           d="m 154.91739,144.78876 v -1.60867 q 0,-0.44027 -0.12982,-0.6604 -0.12418,-0.22578 -0.46285,-0.22578 -0.29915,0 -0.49671,0.16369 -0.19191,0.15805 -0.27093,0.40076 v 1.9304 h -0.45156 v -2.82222 h 0.31609 l 0.0847,0.34431 h 0.0226 q 0.13546,-0.18063 0.36124,-0.29351 0.23142,-0.11854 0.54751,-0.11854 0.23143,0 0.4064,0.0565 0.17498,0.0508 0.28787,0.18626 0.11853,0.13547 0.17498,0.36689 0.0621,0.22578 0.0621,0.57574 v 1.70462 z"
           style="font-style:normal;font-variant:normal;font-weight:normal;font-stretch:normal;font-size:5.64444447px;font-family:'PT Sans';-inkscape-font-specification:'PT Sans';stroke-width:0.26458332"
           id="path1043" />
        <path
           d="m 156.03428,143.37765 q 0,-0.71685 0.31609,-1.09503 0.32174,-0.38382 0.92005,-0.38382 0.31609,0 0.54751,0.10725 0.23706,0.1016 0.38946,0.29915 0.1524,0.19191 0.22578,0.46849 0.0734,0.27093 0.0734,0.60396 0,0.71684 -0.32173,1.10066 -0.31609,0.37818 -0.9144,0.37818 -0.31609,0 -0.55316,-0.1016 -0.23142,-0.10724 -0.38382,-0.29915 -0.1524,-0.19756 -0.22578,-0.46849 -0.0734,-0.27658 -0.0734,-0.6096 z m 0.46849,0 q 0,0.21449 0.0395,0.41204 0.0452,0.19756 0.13547,0.34431 0.0903,0.14676 0.23707,0.23707 0.14675,0.0903 0.3556,0.0903 0.76764,0.006 0.76764,-1.08373 0,-0.22014 -0.0452,-0.41769 -0.0395,-0.19756 -0.12983,-0.34431 -0.0903,-0.14676 -0.23706,-0.23143 -0.14676,-0.0903 -0.3556,-0.0903 -0.76765,-0.006 -0.76765,1.08374 z"
           style="font-style:normal;font-variant:normal;font-weight:normal;font-stretch:normal;font-size:5.64444447px;font-family:'PT Sans';-inkscape-font-specification:'PT Sans';stroke-width:0.26458332"
           id="path1045" />
        <path
           d="m 158.84045,141.96654 h 0.44027 v -0.5588 l 0.45156,-0.12983 v 0.68863 h 0.76764 v 0.39511 h -0.76764 v 1.56351 q 0,0.29351 0.0734,0.41769 0.0734,0.11853 0.24836,0.11853 0.14676,0 0.24836,-0.0282 0.1016,-0.0339 0.22577,-0.0847 l 0.1016,0.34431 q -0.1524,0.0734 -0.33302,0.11854 -0.18062,0.0452 -0.38947,0.0452 -0.34431,0 -0.48542,-0.19191 -0.14111,-0.19756 -0.14111,-0.65476 v -1.64817 h -0.44027 z"
           style="font-style:normal;font-variant:normal;font-weight:normal;font-stretch:normal;font-size:5.64444447px;font-family:'PT Sans';-inkscape-font-specification:'PT Sans';stroke-width:0.26458332"
           id="path1047" />
        <path
           d="m 164.70177,144.56298 q -0.16933,0.13547 -0.42898,0.21449 -0.254,0.079 -0.54187,0.079 -0.32173,0 -0.5588,-0.1016 -0.23706,-0.10724 -0.38946,-0.29915 -0.1524,-0.19756 -0.22578,-0.46849 -0.0734,-0.27094 -0.0734,-0.6096 0,-0.72249 0.32174,-1.10067 0.32173,-0.37818 0.92004,-0.37818 0.19191,0 0.38382,0.0452 0.19191,0.0395 0.34431,0.15804 0.1524,0.11854 0.24836,0.33867 0.0959,0.21449 0.0959,0.57009 0,0.18626 -0.0339,0.41204 h -1.81187 q 0,0.24836 0.0508,0.44027 0.0508,0.19191 0.15805,0.32738 0.10724,0.12982 0.27657,0.2032 0.17498,0.0677 0.42334,0.0677 0.19191,0 0.38382,-0.0677 0.19191,-0.0677 0.28787,-0.15805 z m -0.97085,-2.26907 q -0.33302,0 -0.53622,0.17498 -0.19755,0.17498 -0.23706,0.59831 h 1.39982 q 0,-0.42898 -0.16369,-0.59831 -0.16369,-0.17498 -0.46285,-0.17498 z"
           style="font-style:normal;font-variant:normal;font-weight:normal;font-stretch:normal;font-size:5.64444447px;font-family:'PT Sans';-inkscape-font-specification:'PT Sans';stroke-width:0.26458332"
           id="path1049" />
        <path
           d="m 166.115,143.34378 -0.94827,-1.37724 h 0.55316 l 0.53622,0.77893 0.15804,0.32173 0.16369,-0.32173 0.54751,-0.77893 h 0.508 l -0.95391,1.35466 1.01036,1.46756 h -0.53623 l -0.59831,-0.85796 -0.16933,-0.33866 -0.17498,0.33866 -0.6096,0.85796 H 165.099 Z"
           style="font-style:normal;font-variant:normal;font-weight:normal;font-stretch:normal;font-size:5.64444447px;font-family:'PT Sans';-inkscape-font-specification:'PT Sans';stroke-width:0.26458332"
           id="path1051" />
        <path
           d="m 168.38195,141.96654 h 0.45155 v 2.82222 h -0.45155 z m -0.096,-0.85796 q 0,-0.12982 0.0847,-0.22013 0.0903,-0.096 0.22577,-0.096 0.13547,0 0.23143,0.096 0.096,0.0903 0.096,0.22013 0,0.12982 -0.096,0.21449 -0.096,0.0847 -0.23143,0.0847 -0.13546,0 -0.22577,-0.0847 -0.0847,-0.0847 -0.0847,-0.21449 z"
           style="font-style:normal;font-variant:normal;font-weight:normal;font-stretch:normal;font-size:5.64444447px;font-family:'PT Sans';-inkscape-font-specification:'PT Sans';stroke-width:0.26458332"
           id="path1053" />
        <path
           d="m 171.0381,144.02111 q 0,-0.16933 -0.1016,-0.26529 -0.1016,-0.0959 -0.254,-0.15804 -0.14676,-0.0677 -0.32738,-0.12418 -0.17498,-0.0621 -0.32738,-0.1524 -0.14675,-0.096 -0.24835,-0.24271 -0.1016,-0.14675 -0.1016,-0.39511 0,-0.4064 0.23142,-0.59267 0.23142,-0.19191 0.64347,-0.19191 0.3048,0 0.508,0.0565 0.20884,0.0508 0.36124,0.12417 l -0.10724,0.37254 q -0.12983,-0.0621 -0.31609,-0.10725 -0.18063,-0.0508 -0.38947,-0.0508 -0.24836,0 -0.36689,0.0847 -0.11289,0.0847 -0.11289,0.29351 0,0.14676 0.1016,0.23142 0.1016,0.079 0.24836,0.14676 0.1524,0.0621 0.32738,0.12418 0.18062,0.0621 0.32737,0.16369 0.1524,0.1016 0.254,0.25964 0.1016,0.1524 0.1016,0.4064 0,0.18062 -0.0621,0.33867 -0.0564,0.15804 -0.18062,0.27093 -0.12418,0.11289 -0.31044,0.17498 -0.18062,0.0677 -0.42898,0.0677 -0.32173,0 -0.54751,-0.0621 -0.22578,-0.0621 -0.37818,-0.14675 l 0.13547,-0.38383 q 0.12982,0.0734 0.33866,0.13547 0.20885,0.0621 0.42334,0.0621 0.24271,0 0.40075,-0.096 0.15805,-0.0959 0.15805,-0.34431 z"
           style="font-style:normal;font-variant:normal;font-weight:normal;font-stretch:normal;font-size:5.64444447px;font-family:'PT Sans';-inkscape-font-specification:'PT Sans';stroke-width:0.26458332"
           id="path1055" />
        <path
           d="m 171.80504,141.96654 h 0.44027 v -0.5588 l 0.45155,-0.12983 v 0.68863 h 0.76765 v 0.39511 h -0.76765 v 1.56351 q 0,0.29351 0.0734,0.41769 0.0734,0.11853 0.24835,0.11853 0.14676,0 0.24836,-0.0282 0.1016,-0.0339 0.22578,-0.0847 l 0.1016,0.34431 q -0.1524,0.0734 -0.33302,0.11854 -0.18063,0.0452 -0.38947,0.0452 -0.34431,0 -0.48542,-0.19191 -0.14111,-0.19756 -0.14111,-0.65476 v -1.64817 h -0.44027 z"
           style="font-style:normal;font-variant:normal;font-weight:normal;font-stretch:normal;font-size:5.64444447px;font-family:'PT Sans';-inkscape-font-specification:'PT Sans';stroke-width:0.26458332"
           id="path1057" />
        <path
           d="m 174.02595,144.52911 q 0,-0.1524 0.0847,-0.23706 0.0903,-0.0903 0.23707,-0.0903 0.1524,0 0.24271,0.0903 0.0903,0.0847 0.0903,0.23706 0,0.14676 -0.0903,0.23707 -0.0903,0.0903 -0.24271,0.0903 -0.14676,0 -0.23707,-0.0903 -0.0847,-0.0903 -0.0847,-0.23707 z"
           style="font-style:normal;font-variant:normal;font-weight:normal;font-stretch:normal;font-size:5.64444447px;font-family:'PT Sans';-inkscape-font-specification:'PT Sans';stroke-width:0.26458332"
           id="path1059" />
      </g>
    </g>
    <g
       aria-label="Go back, or head home to pick a new direction."
       style="font-style:normal;font-weight:normal;font-size:16.48454094px;line-height:1.25;font-family:sans-serif;letter-spacing:0px;word-spacing:0px;opacity:0.925;fill:#000000;fill-opacity:1;stroke:none;stroke-width:0.41211349"
       id="text922">
      <path
         d="m 117.72057,194.10754 h 1.67867 v 2.20014 q -0.11429,0.0857 -0.27859,0.15715 -0.15715,0.0714 -0.34288,0.12144 -0.17858,0.05 -0.37859,0.0714 -0.19287,0.0286 -0.3786,0.0286 -0.4786,0 -0.87862,-0.15001 -0.40003,-0.15716 -0.6929,-0.47146 -0.29288,-0.32145 -0.45717,-0.8072 -0.1643,-0.49288 -0.1643,-1.15721 0,-0.6929 0.20001,-1.18579 0.20002,-0.49289 0.52146,-0.80005 0.32145,-0.3143 0.72148,-0.45717 0.40002,-0.14286 0.80005,-0.14286 0.4286,0 0.70718,0.05 0.27859,0.0429 0.47146,0.12143 l -0.15001,0.52147 q -0.34288,-0.1643 -0.97863,-0.1643 -0.30002,0 -0.60004,0.10715 -0.29287,0.10001 -0.5286,0.34288 -0.23573,0.24287 -0.38574,0.63575 -0.15001,0.39288 -0.15001,0.97149 0,0.5286 0.12144,0.91434 0.12143,0.38574 0.33573,0.6429 0.22145,0.25002 0.52861,0.37859 0.30716,0.12144 0.67147,0.12144 0.45717,0 0.77862,-0.17858 v -1.39295 l -1.1715,-0.14286 z"
         style="fill:#b64b4b;fill-opacity:1;stroke-width:0.41211349"
         id="path846" />
      <path
         d="m 120.14449,194.81473 q 0,-0.9072 0.40002,-1.3858 0.40717,-0.48574 1.16436,-0.48574 0.40003,0 0.6929,0.13572 0.30002,0.12858 0.49289,0.37859 0.19287,0.24288 0.28573,0.5929 0.0929,0.34288 0.0929,0.76433 0,0.9072 -0.40717,1.39294 -0.40003,0.47861 -1.15722,0.47861 -0.40002,0 -0.70004,-0.12858 -0.29288,-0.13573 -0.48575,-0.3786 -0.19286,-0.25001 -0.28573,-0.59289 -0.0929,-0.35003 -0.0929,-0.77148 z m 0.59289,0 q 0,0.27145 0.05,0.52146 0.0571,0.25002 0.17144,0.43574 0.11429,0.18573 0.30001,0.30002 0.18573,0.11429 0.45003,0.11429 0.97149,0.007 0.97149,-1.37151 0,-0.27859 -0.0571,-0.5286 -0.05,-0.25002 -0.16429,-0.43575 -0.11429,-0.18572 -0.30002,-0.29287 -0.18573,-0.11429 -0.45003,-0.11429 -0.97149,-0.007 -0.97149,1.37151 z"
         style="fill:#b64b4b;fill-opacity:1;stroke-width:0.41211349"
         id="path848" />
      <path
         d="m 126.07867,191.60024 h 0.57147 v 1.77869 h 0.0286 q 0.1643,-0.20716 0.41431,-0.32145 0.25716,-0.11429 0.55718,-0.11429 0.6929,0 1.03578,0.44288 0.35002,0.44288 0.35002,1.37151 0,0.93578 -0.45717,1.42152 -0.45717,0.48575 -1.28579,0.48575 -0.40003,0 -0.72862,-0.0857 -0.32145,-0.0857 -0.48575,-0.18573 z m 1.47152,1.84298 q -0.35716,0 -0.5786,0.20001 -0.22144,0.20001 -0.32145,0.56432 v 1.80011 q 0.13572,0.0786 0.32859,0.12144 0.19287,0.0357 0.40003,0.0357 0.48574,0 0.77147,-0.34287 0.29288,-0.34288 0.29288,-1.0715 0,-0.27859 -0.05,-0.52146 -0.05,-0.24287 -0.15715,-0.41431 -0.10715,-0.17144 -0.27859,-0.27145 -0.16429,-0.1 -0.40717,-0.1 z"
         style="fill:#b64b4b;fill-opacity:1;stroke-width:0.41211349"
         id="path850" />
      <path
         d="m 129.87221,193.29321 q 0.27145,-0.1643 0.62862,-0.24288 0.3643,-0.0786 0.75718,-0.0786 0.37146,0 0.5929,0.1 0.22858,0.10001 0.34288,0.26431 0.12143,0.15715 0.15715,0.35002 0.0429,0.19287 0.0429,0.38574 0,0.42859 -0.0214,0.83576 -0.0214,0.40717 -0.0214,0.77148 0,0.2643 0.0214,0.50003 0.0214,0.23573 0.0786,0.43574 h -0.42146 l -0.15001,-0.50003 h -0.0357 q -0.0643,0.10001 -0.1643,0.20001 -0.0929,0.0929 -0.22859,0.17144 -0.13572,0.0714 -0.3143,0.12144 -0.17858,0.05 -0.40717,0.05 -0.22858,0 -0.4286,-0.0714 -0.19287,-0.0714 -0.33573,-0.20001 -0.14287,-0.13573 -0.22859,-0.32145 -0.0786,-0.18573 -0.0786,-0.42146 0,-0.3143 0.12857,-0.52146 0.12858,-0.2143 0.35717,-0.33573 0.23573,-0.12858 0.55718,-0.17859 0.32859,-0.0571 0.72147,-0.0571 0.10001,0 0.19287,0 0.10001,0 0.20001,0.0143 0.0214,-0.21429 0.0214,-0.38573 0,-0.39289 -0.15715,-0.55004 -0.15715,-0.15715 -0.57146,-0.15715 -0.12144,0 -0.26431,0.0214 -0.13572,0.0143 -0.28573,0.05 -0.14286,0.0286 -0.27859,0.0786 -0.12858,0.0429 -0.22858,0.10001 z m 1.01435,2.86446 q 0.20002,0 0.35717,-0.05 0.15715,-0.0572 0.27144,-0.13573 0.1143,-0.0857 0.18573,-0.18572 0.0786,-0.10001 0.11429,-0.19287 v -0.59289 q -0.1,-0.007 -0.20715,-0.007 -0.10001,-0.007 -0.20002,-0.007 -0.22144,0 -0.43574,0.0286 -0.20715,0.0214 -0.37145,0.0929 -0.15715,0.0643 -0.25716,0.18572 -0.0929,0.11429 -0.0929,0.29288 0,0.25001 0.17858,0.41431 0.17858,0.15715 0.45717,0.15715 z"
         style="fill:#b64b4b;fill-opacity:1;stroke-width:0.41211349"
         id="path852" />
      <path
         d="m 135.90897,196.36483 q -0.2143,0.15715 -0.50717,0.23573 -0.29288,0.0857 -0.61433,0.0857 -0.41431,0 -0.70004,-0.12858 -0.28573,-0.13573 -0.47146,-0.3786 -0.17858,-0.25001 -0.2643,-0.59289 -0.0786,-0.35003 -0.0786,-0.77148 0,-0.9072 0.40003,-1.3858 0.40002,-0.48574 1.15007,-0.48574 0.34288,0 0.57861,0.0571 0.24287,0.05 0.43574,0.15001 l -0.1643,0.49289 q -0.16429,-0.0929 -0.3643,-0.14287 -0.20002,-0.0571 -0.4286,-0.0571 -1.01435,0 -1.01435,1.37151 0,0.27145 0.05,0.52146 0.0572,0.24287 0.17858,0.43574 0.12858,0.18573 0.3286,0.30002 0.20715,0.11429 0.50717,0.11429 0.25716,0 0.45717,-0.0786 0.20716,-0.0786 0.33574,-0.17858 z"
         style="fill:#b64b4b;fill-opacity:1;stroke-width:0.41211349"
         id="path855" />
      <path
         d="m 137.59602,194.99331 h -0.32859 v 1.60725 h -0.57147 v -5.00032 h 0.57147 v 3.04305 l 0.29287,-0.10001 1.10721,-1.51438 h 0.66433 l -1.09292,1.43581 -0.29288,0.23573 0.35717,0.28573 1.19293,1.61439 h -0.70719 z"
         style="fill:#b64b4b;fill-opacity:1;stroke-width:0.41211349"
         id="path857" />
      <path
         d="m 139.91413,196.29339 q 0,-0.17144 0.1143,-0.27859 0.11429,-0.10714 0.29287,-0.10714 0.22144,0 0.35717,0.15715 0.14286,0.15715 0.14286,0.45717 0,0.25716 -0.0714,0.45003 -0.0714,0.19287 -0.18573,0.32859 -0.11429,0.14286 -0.25001,0.22858 -0.13572,0.0929 -0.27145,0.13573 l -0.17858,-0.27859 q 0.25716,-0.10001 0.3786,-0.31431 0.12857,-0.20715 0.12857,-0.42145 -0.0643,0.0214 -0.12143,0.0214 -0.14287,0 -0.24287,-0.0929 -0.0929,-0.10001 -0.0929,-0.28574 z"
         style="font-style:normal;font-variant:normal;font-weight:normal;font-stretch:normal;font-size:7.14330101px;font-family:'PT Sans';-inkscape-font-specification:'PT Sans';stroke-width:0.41211349"
         id="path859" />
      <path
         d="m 142.87191,194.81473 q 0,-0.9072 0.40002,-1.3858 0.40717,-0.48574 1.16436,-0.48574 0.40002,0 0.6929,0.13572 0.30002,0.12858 0.49289,0.37859 0.19287,0.24288 0.28573,0.5929 0.0929,0.34288 0.0929,0.76433 0,0.9072 -0.40717,1.39294 -0.40002,0.47861 -1.15721,0.47861 -0.40003,0 -0.70004,-0.12858 -0.29288,-0.13573 -0.48575,-0.3786 -0.19287,-0.25001 -0.28573,-0.59289 -0.0929,-0.35003 -0.0929,-0.77148 z m 0.59289,0 q 0,0.27145 0.05,0.52146 0.0571,0.25002 0.17144,0.43574 0.1143,0.18573 0.30002,0.30002 0.18573,0.11429 0.45003,0.11429 0.97149,0.007 0.97149,-1.37151 0,-0.27859 -0.0572,-0.5286 -0.05,-0.25002 -0.16429,-0.43575 -0.1143,-0.18572 -0.30002,-0.29287 -0.18573,-0.11429 -0.45003,-0.11429 -0.97149,-0.007 -0.97149,1.37151 z"
         style="font-style:normal;font-variant:normal;font-weight:normal;font-stretch:normal;font-size:7.14330101px;font-family:'PT Sans';-inkscape-font-specification:'PT Sans';stroke-width:0.41211349"
         id="path861" />
      <path
         d="m 148.58052,193.57894 q -0.2143,-0.0714 -0.40717,-0.0714 -0.30716,0 -0.48574,0.17144 -0.17859,0.16429 -0.22145,0.42145 v 2.50016 h -0.57146 v -3.57166 h 0.40002 l 0.10715,0.43575 h 0.0286 q 0.13572,-0.24288 0.32145,-0.37146 0.19286,-0.13572 0.48574,-0.13572 0.20716,0 0.46431,0.0714 z"
         style="font-style:normal;font-variant:normal;font-weight:normal;font-stretch:normal;font-size:7.14330101px;font-family:'PT Sans';-inkscape-font-specification:'PT Sans';stroke-width:0.41211349"
         id="path863" />
      <path
         d="m 153.5267,196.60056 v -2.03585 q 0,-0.27858 -0.0357,-0.48574 -0.0286,-0.2143 -0.11429,-0.35002 -0.0857,-0.14287 -0.23573,-0.2143 -0.14287,-0.0714 -0.3786,-0.0714 -0.33573,0 -0.60718,0.22144 -0.27144,0.2143 -0.35002,0.55718 v 2.37872 h -0.57146 v -5.00032 h 0.57146 v 1.82869 h 0.0286 q 0.18573,-0.22144 0.44289,-0.35002 0.2643,-0.13572 0.65004,-0.13572 0.30002,0 0.52146,0.0714 0.22144,0.0643 0.36431,0.23573 0.15001,0.17144 0.2143,0.46431 0.0714,0.28573 0.0714,0.72862 v 2.15728 z"
         style="font-style:normal;font-variant:normal;font-weight:normal;font-stretch:normal;font-size:7.14330101px;font-family:'PT Sans';-inkscape-font-specification:'PT Sans';stroke-width:0.41211349"
         id="path865" />
      <path
         d="m 157.7475,196.31482 q -0.2143,0.17144 -0.5429,0.27145 -0.32144,0.10001 -0.68575,0.10001 -0.40717,0 -0.70719,-0.12858 -0.30002,-0.13573 -0.49289,-0.3786 -0.19287,-0.25001 -0.28573,-0.59289 -0.0929,-0.34288 -0.0929,-0.77148 0,-0.91434 0.40717,-1.39294 0.40716,-0.4786 1.16435,-0.4786 0.24288,0 0.48575,0.0571 0.24287,0.05 0.43574,0.20001 0.19287,0.15001 0.31431,0.4286 0.12143,0.27145 0.12143,0.72148 0,0.23572 -0.0429,0.52146 h -2.293 q 0,0.3143 0.0643,0.55717 0.0643,0.24288 0.20001,0.41432 0.13573,0.16429 0.35003,0.25715 0.22144,0.0857 0.53574,0.0857 0.24288,0 0.48575,-0.0857 0.24287,-0.0857 0.36431,-0.20001 z m -1.22865,-2.8716 q -0.42146,0 -0.67862,0.22144 -0.25001,0.22144 -0.30001,0.75719 h 1.77153 q 0,-0.54289 -0.20715,-0.75719 -0.20716,-0.22144 -0.58575,-0.22144 z"
         style="font-style:normal;font-variant:normal;font-weight:normal;font-stretch:normal;font-size:7.14330101px;font-family:'PT Sans';-inkscape-font-specification:'PT Sans';stroke-width:0.41211349"
         id="path867" />
      <path
         d="m 158.7105,193.29321 q 0.27145,-0.1643 0.62861,-0.24288 0.36431,-0.0786 0.75719,-0.0786 0.37145,0 0.5929,0.1 0.22858,0.10001 0.34287,0.26431 0.12144,0.15715 0.15716,0.35002 0.0429,0.19287 0.0429,0.38574 0,0.42859 -0.0214,0.83576 -0.0214,0.40717 -0.0214,0.77148 0,0.2643 0.0214,0.50003 0.0214,0.23573 0.0786,0.43574 h -0.42145 l -0.15001,-0.50003 h -0.0357 q -0.0643,0.10001 -0.16429,0.20001 -0.0929,0.0929 -0.22859,0.17144 -0.13572,0.0714 -0.3143,0.12144 -0.17859,0.05 -0.40717,0.05 -0.22859,0 -0.4286,-0.0714 -0.19287,-0.0714 -0.33574,-0.20001 -0.14286,-0.13573 -0.22858,-0.32145 -0.0786,-0.18573 -0.0786,-0.42146 0,-0.3143 0.12858,-0.52146 0.12858,-0.2143 0.35717,-0.33573 0.23573,-0.12858 0.55717,-0.17859 0.3286,-0.0571 0.72148,-0.0571 0.1,0 0.19287,0 0.1,0 0.20001,0.0143 0.0214,-0.21429 0.0214,-0.38573 0,-0.39289 -0.15715,-0.55004 -0.15716,-0.15715 -0.57147,-0.15715 -0.12143,0 -0.2643,0.0214 -0.13572,0.0143 -0.28573,0.05 -0.14287,0.0286 -0.27859,0.0786 -0.12858,0.0429 -0.22859,0.10001 z m 1.01435,2.86446 q 0.20001,0 0.35716,-0.05 0.15716,-0.0572 0.27145,-0.13573 0.11429,-0.0857 0.18573,-0.18572 0.0786,-0.10001 0.11429,-0.19287 v -0.59289 q -0.10001,-0.007 -0.20716,-0.007 -0.1,-0.007 -0.20001,-0.007 -0.22144,0 -0.43574,0.0286 -0.20716,0.0214 -0.37145,0.0929 -0.15715,0.0643 -0.25716,0.18572 -0.0929,0.11429 -0.0929,0.29288 0,0.25001 0.17858,0.41431 0.17858,0.15715 0.45717,0.15715 z"
         style="font-style:normal;font-variant:normal;font-weight:normal;font-stretch:normal;font-size:7.14330101px;font-family:'PT Sans';-inkscape-font-specification:'PT Sans';stroke-width:0.41211349"
         id="path869" />
      <path
         d="m 165.05442,195.37191 q 0,0.36431 0.007,0.66432 0.007,0.29288 0.0643,0.57861 h -0.38573 l -0.14287,-0.50717 h -0.0286 q -0.14287,0.25001 -0.41431,0.41431 -0.27145,0.1643 -0.63576,0.1643 -0.71433,0 -1.06435,-0.45003 -0.34288,-0.45003 -0.34288,-1.40723 0,-0.91435 0.4286,-1.3858 0.43574,-0.4786 1.19293,-0.4786 0.2643,0 0.41431,0.0286 0.15716,0.0286 0.33574,0.0929 v -1.48581 h 0.57146 z m -1.44294,0.81433 q 0.3643,0 0.5786,-0.18572 0.2143,-0.19287 0.29288,-0.57861 v -1.77154 q -0.12858,-0.1 -0.29288,-0.14286 -0.16429,-0.0429 -0.43574,-0.0429 -0.49289,0 -0.77148,0.32859 -0.27858,0.32145 -0.27858,1.03578 0,0.29287 0.0429,0.54289 0.05,0.25001 0.15715,0.4286 0.10715,0.17858 0.27859,0.28573 0.17858,0.1 0.4286,0.1 z"
         style="font-style:normal;font-variant:normal;font-weight:normal;font-stretch:normal;font-size:7.14330101px;font-family:'PT Sans';-inkscape-font-specification:'PT Sans';stroke-width:0.41211349"
         id="path871" />
      <path
         d="m 170.35252,196.60056 v -2.03585 q 0,-0.27858 -0.0357,-0.48574 -0.0286,-0.2143 -0.11429,-0.35002 -0.0857,-0.14287 -0.23573,-0.2143 -0.14286,-0.0714 -0.37859,-0.0714 -0.33574,0 -0.60718,0.22144 -0.27145,0.2143 -0.35002,0.55718 v 2.37872 h -0.57147 v -5.00032 h 0.57147 v 1.82869 h 0.0286 q 0.18572,-0.22144 0.44288,-0.35002 0.26431,-0.13572 0.65004,-0.13572 0.30002,0 0.52146,0.0714 0.22145,0.0643 0.36431,0.23573 0.15001,0.17144 0.2143,0.46431 0.0714,0.28573 0.0714,0.72862 v 2.15728 z"
         style="fill:#b64949;fill-opacity:1;stroke-width:0.41211349"
         id="path873" />
      <path
         d="m 171.766,194.81473 q 0,-0.9072 0.40002,-1.3858 0.40717,-0.48574 1.16436,-0.48574 0.40003,0 0.6929,0.13572 0.30002,0.12858 0.49289,0.37859 0.19287,0.24288 0.28573,0.5929 0.0929,0.34288 0.0929,0.76433 0,0.9072 -0.40717,1.39294 -0.40003,0.47861 -1.15722,0.47861 -0.40002,0 -0.70004,-0.12858 -0.29288,-0.13573 -0.48575,-0.3786 -0.19286,-0.25001 -0.28573,-0.59289 -0.0929,-0.35003 -0.0929,-0.77148 z m 0.59289,0 q 0,0.27145 0.05,0.52146 0.0571,0.25002 0.17144,0.43574 0.11429,0.18573 0.30001,0.30002 0.18573,0.11429 0.45003,0.11429 0.97149,0.007 0.97149,-1.37151 0,-0.27859 -0.0572,-0.5286 -0.05,-0.25002 -0.16429,-0.43575 -0.11429,-0.18572 -0.30002,-0.29287 -0.18573,-0.11429 -0.45003,-0.11429 -0.97149,-0.007 -0.97149,1.37151 z"
         style="fill:#b64949;fill-opacity:1;stroke-width:0.41211349"
         id="path875" />
      <path
         d="M 177.88178,196.60056 V 194.579 q 0,-0.28573 -0.0286,-0.49289 -0.0214,-0.2143 -0.0929,-0.35716 -0.0714,-0.14287 -0.20716,-0.2143 -0.12858,-0.0714 -0.34288,-0.0714 -0.32859,0 -0.55003,0.20001 -0.2143,0.20001 -0.30002,0.50003 v 2.4573 h -0.57146 v -3.57166 h 0.40002 l 0.10715,0.43575 h 0.0286 q 0.19287,-0.22859 0.44289,-0.37146 0.25716,-0.15 0.66433,-0.15 0.34287,0 0.55717,0.13572 0.22145,0.12858 0.34288,0.45717 0.1643,-0.27859 0.45003,-0.43574 0.29287,-0.15715 0.65718,-0.15715 0.30002,0 0.50718,0.0714 0.20715,0.0643 0.34288,0.23573 0.13572,0.17144 0.19286,0.46431 0.0643,0.29288 0.0643,0.74291 v 2.14299 h -0.57146 v -2.15014 q 0,-0.25716 -0.0286,-0.44288 -0.0214,-0.19287 -0.10001,-0.31431 -0.0714,-0.12858 -0.20715,-0.18572 -0.12858,-0.0643 -0.34288,-0.0643 -0.35717,0 -0.55718,0.20001 -0.20001,0.20001 -0.28573,0.57146 v 2.38587 z"
         style="fill:#b64949;fill-opacity:1;stroke-width:0.41211349"
         id="path877" />
      <path
         d="m 184.20003,196.31482 q -0.2143,0.17144 -0.54289,0.27145 -0.32145,0.10001 -0.68575,0.10001 -0.40717,0 -0.70719,-0.12858 -0.30002,-0.13573 -0.49289,-0.3786 -0.19287,-0.25001 -0.28573,-0.59289 -0.0929,-0.34288 -0.0929,-0.77148 0,-0.91434 0.40716,-1.39294 0.40717,-0.4786 1.16436,-0.4786 0.24287,0 0.48575,0.0571 0.24287,0.05 0.43574,0.20001 0.19287,0.15001 0.3143,0.4286 0.12144,0.27145 0.12144,0.72148 0,0.23572 -0.0429,0.52146 h -2.293 q 0,0.3143 0.0643,0.55717 0.0643,0.24288 0.20001,0.41432 0.13572,0.16429 0.35002,0.25715 0.22145,0.0857 0.53575,0.0857 0.24287,0 0.48575,-0.0857 0.24287,-0.0857 0.3643,-0.20001 z m -1.22864,-2.8716 q -0.42146,0 -0.67862,0.22144 -0.25001,0.22144 -0.30002,0.75719 h 1.77154 q 0,-0.54289 -0.20715,-0.75719 -0.20716,-0.22144 -0.58575,-0.22144 z"
         style="fill:#b64949;fill-opacity:1;stroke-width:0.41211349"
         id="path879" />
      <path
         d="m 186.66012,193.0289 h 0.55718 v -0.70718 l 0.57146,-0.1643 v 0.87148 h 0.97149 v 0.50004 h -0.97149 v 1.97869 q 0,0.37145 0.0929,0.5286 0.0929,0.15001 0.31431,0.15001 0.18572,0 0.3143,-0.0357 0.12858,-0.0429 0.28574,-0.10715 l 0.12858,0.43574 q -0.19287,0.0929 -0.42146,0.15001 -0.22858,0.0572 -0.49289,0.0572 -0.43574,0 -0.61432,-0.24288 -0.17858,-0.25001 -0.17858,-0.82862 v -2.08584 h -0.55718 z"
         style="font-style:normal;font-variant:normal;font-weight:normal;font-stretch:normal;font-size:7.14330101px;font-family:'PT Sans';-inkscape-font-specification:'PT Sans';stroke-width:0.41211349"
         id="path881" />
      <path
         d="m 189.27546,194.81473 q 0,-0.9072 0.40002,-1.3858 0.40717,-0.48574 1.16436,-0.48574 0.40003,0 0.6929,0.13572 0.30002,0.12858 0.49289,0.37859 0.19287,0.24288 0.28573,0.5929 0.0929,0.34288 0.0929,0.76433 0,0.9072 -0.40717,1.39294 -0.40003,0.47861 -1.15722,0.47861 -0.40002,0 -0.70004,-0.12858 -0.29288,-0.13573 -0.48575,-0.3786 -0.19286,-0.25001 -0.28573,-0.59289 -0.0929,-0.35003 -0.0929,-0.77148 z m 0.59289,0 q 0,0.27145 0.05,0.52146 0.0571,0.25002 0.17144,0.43574 0.11429,0.18573 0.30001,0.30002 0.18573,0.11429 0.45003,0.11429 0.97149,0.007 0.97149,-1.37151 0,-0.27859 -0.0571,-0.5286 -0.05,-0.25002 -0.1643,-0.43575 -0.11429,-0.18572 -0.30002,-0.29287 -0.18573,-0.11429 -0.45003,-0.11429 -0.97149,-0.007 -0.97149,1.37151 z"
         style="font-style:normal;font-variant:normal;font-weight:normal;font-stretch:normal;font-size:7.14330101px;font-family:'PT Sans';-inkscape-font-specification:'PT Sans';stroke-width:0.41211349"
         id="path883" />
      <path
         d="m 195.20965,193.0289 h 0.39288 l 0.10715,0.4286 h 0.0286 q 0.1643,-0.25001 0.42146,-0.37859 0.2643,-0.13572 0.60004,-0.13572 0.71433,0 1.06435,0.42145 0.35002,0.42145 0.35002,1.37866 0,0.45003 -0.12144,0.81433 -0.11429,0.35717 -0.32859,0.60718 -0.2143,0.25002 -0.52146,0.38574 -0.30002,0.13573 -0.67147,0.13573 -0.2643,0 -0.42146,-0.0357 -0.15,-0.0286 -0.32859,-0.10715 v 1.48581 h -0.57146 z m 1.44295,0.41432 q -0.36431,0 -0.57861,0.19287 -0.20716,0.18572 -0.29288,0.57146 v 1.77154 q 0.12858,0.1 0.29288,0.15715 0.16429,0.05 0.43574,0.05 0.49289,0 0.77862,-0.3643 0.29287,-0.37146 0.29287,-1.08579 0,-0.29287 -0.05,-0.5286 -0.05,-0.24287 -0.16429,-0.40717 -0.10715,-0.17144 -0.28574,-0.2643 -0.17144,-0.0929 -0.42859,-0.0929 z"
         style="font-style:normal;font-variant:normal;font-weight:normal;font-stretch:normal;font-size:7.14330101px;font-family:'PT Sans';-inkscape-font-specification:'PT Sans';stroke-width:0.41211349"
         id="path885" />
      <path
         d="m 199.19572,193.0289 h 0.57146 v 3.57166 h -0.57146 z m -0.12144,-1.08578 q 0,-0.16429 0.10715,-0.27859 0.11429,-0.12143 0.28573,-0.12143 0.17144,0 0.29288,0.12143 0.12143,0.1143 0.12143,0.27859 0,0.1643 -0.12143,0.27145 -0.12144,0.10715 -0.29288,0.10715 -0.17144,0 -0.28573,-0.10715 -0.10715,-0.10715 -0.10715,-0.27145 z"
         style="font-style:normal;font-variant:normal;font-weight:normal;font-stretch:normal;font-size:7.14330101px;font-family:'PT Sans';-inkscape-font-specification:'PT Sans';stroke-width:0.41211349"
         id="path887" />
      <path
         d="m 203.42154,196.36483 q -0.2143,0.15715 -0.50718,0.23573 -0.29287,0.0857 -0.61432,0.0857 -0.41431,0 -0.70004,-0.12858 -0.28574,-0.13573 -0.47146,-0.3786 -0.17858,-0.25001 -0.2643,-0.59289 -0.0786,-0.35003 -0.0786,-0.77148 0,-0.9072 0.40003,-1.3858 0.40002,-0.48574 1.15007,-0.48574 0.34287,0 0.5786,0.0571 0.24288,0.05 0.43575,0.15001 l -0.1643,0.49289 q -0.1643,-0.0929 -0.36431,-0.14287 -0.20001,-0.0571 -0.4286,-0.0571 -1.01435,0 -1.01435,1.37151 0,0.27145 0.05,0.52146 0.0571,0.24287 0.17858,0.43574 0.12858,0.18573 0.32859,0.30002 0.20716,0.11429 0.50718,0.11429 0.25715,0 0.45717,-0.0786 0.20715,-0.0786 0.33573,-0.17858 z"
         style="font-style:normal;font-variant:normal;font-weight:normal;font-stretch:normal;font-size:7.14330101px;font-family:'PT Sans';-inkscape-font-specification:'PT Sans';stroke-width:0.41211349"
         id="path889" />
      <path
         d="m 205.10858,194.99331 h -0.32859 v 1.60725 h -0.57146 v -5.00032 h 0.57146 v 3.04305 l 0.29288,-0.10001 1.10721,-1.51438 h 0.66433 l -1.09293,1.43581 -0.29288,0.23573 0.35717,0.28573 1.19293,1.61439 h -0.70719 z"
         style="font-style:normal;font-variant:normal;font-weight:normal;font-stretch:normal;font-size:7.14330101px;font-family:'PT Sans';-inkscape-font-specification:'PT Sans';stroke-width:0.41211349"
         id="path891" />
      <path
         d="m 209.27168,193.29321 q 0.27145,-0.1643 0.62861,-0.24288 0.36431,-0.0786 0.75719,-0.0786 0.37145,0 0.5929,0.1 0.22858,0.10001 0.34287,0.26431 0.12144,0.15715 0.15716,0.35002 0.0429,0.19287 0.0429,0.38574 0,0.42859 -0.0214,0.83576 -0.0214,0.40717 -0.0214,0.77148 0,0.2643 0.0214,0.50003 0.0214,0.23573 0.0786,0.43574 h -0.42145 l -0.15001,-0.50003 h -0.0357 q -0.0643,0.10001 -0.16429,0.20001 -0.0929,0.0929 -0.22859,0.17144 -0.13572,0.0714 -0.3143,0.12144 -0.17859,0.05 -0.40717,0.05 -0.22859,0 -0.4286,-0.0714 -0.19287,-0.0714 -0.33574,-0.20001 -0.14286,-0.13573 -0.22858,-0.32145 -0.0786,-0.18573 -0.0786,-0.42146 0,-0.3143 0.12858,-0.52146 0.12858,-0.2143 0.35717,-0.33573 0.23573,-0.12858 0.55717,-0.17859 0.3286,-0.0571 0.72148,-0.0571 0.1,0 0.19287,0 0.1,0 0.20001,0.0143 0.0214,-0.21429 0.0214,-0.38573 0,-0.39289 -0.15715,-0.55004 -0.15716,-0.15715 -0.57147,-0.15715 -0.12143,0 -0.2643,0.0214 -0.13572,0.0143 -0.28573,0.05 -0.14287,0.0286 -0.27859,0.0786 -0.12858,0.0429 -0.22859,0.10001 z m 1.01435,2.86446 q 0.20001,0 0.35716,-0.05 0.15716,-0.0572 0.27145,-0.13573 0.11429,-0.0857 0.18573,-0.18572 0.0786,-0.10001 0.11429,-0.19287 v -0.59289 q -0.10001,-0.007 -0.20716,-0.007 -0.1,-0.007 -0.20001,-0.007 -0.22144,0 -0.43574,0.0286 -0.20716,0.0214 -0.37145,0.0929 -0.15715,0.0643 -0.25716,0.18572 -0.0929,0.11429 -0.0929,0.29288 0,0.25001 0.17858,0.41431 0.17858,0.15715 0.45717,0.15715 z"
         style="font-style:normal;font-variant:normal;font-weight:normal;font-stretch:normal;font-size:7.14330101px;font-family:'PT Sans';-inkscape-font-specification:'PT Sans';stroke-width:0.41211349"
         id="path893" />
      <path
         d="m 217.07697,196.60056 v -2.03585 q 0,-0.55717 -0.1643,-0.83576 -0.15715,-0.28573 -0.58575,-0.28573 -0.3786,0 -0.62861,0.20715 -0.24287,0.20001 -0.34288,0.50718 v 2.44301 h -0.57146 v -3.57166 h 0.40002 l 0.10715,0.43575 h 0.0286 q 0.17144,-0.22859 0.45718,-0.37146 0.29287,-0.15 0.6929,-0.15 0.29287,0 0.51431,0.0714 0.22145,0.0643 0.36431,0.23573 0.15001,0.17144 0.22144,0.46431 0.0786,0.28573 0.0786,0.72862 v 2.15728 z"
         style="font-style:normal;font-variant:normal;font-weight:normal;font-stretch:normal;font-size:7.14330101px;font-family:'PT Sans';-inkscape-font-specification:'PT Sans';stroke-width:0.41211349"
         id="path895" />
      <path
         d="m 221.29777,196.31482 q -0.2143,0.17144 -0.5429,0.27145 -0.32144,0.10001 -0.68575,0.10001 -0.40717,0 -0.70719,-0.12858 -0.30002,-0.13573 -0.49289,-0.3786 -0.19287,-0.25001 -0.28573,-0.59289 -0.0929,-0.34288 -0.0929,-0.77148 0,-0.91434 0.40717,-1.39294 0.40716,-0.4786 1.16435,-0.4786 0.24288,0 0.48575,0.0571 0.24287,0.05 0.43574,0.20001 0.19287,0.15001 0.31431,0.4286 0.12143,0.27145 0.12143,0.72148 0,0.23572 -0.0429,0.52146 h -2.293 q 0,0.3143 0.0643,0.55717 0.0643,0.24288 0.20001,0.41432 0.13573,0.16429 0.35003,0.25715 0.22144,0.0857 0.53574,0.0857 0.24288,0 0.48575,-0.0857 0.24287,-0.0857 0.36431,-0.20001 z m -1.22865,-2.8716 q -0.42146,0 -0.67862,0.22144 -0.25001,0.22144 -0.30001,0.75719 h 1.77153 q 0,-0.54289 -0.20715,-0.75719 -0.20716,-0.22144 -0.58575,-0.22144 z"
         style="font-style:normal;font-variant:normal;font-weight:normal;font-stretch:normal;font-size:7.14330101px;font-family:'PT Sans';-inkscape-font-specification:'PT Sans';stroke-width:0.41211349"
         id="path897" />
      <path
         d="m 224.54864,193.0289 0.82148,2.08585 0.17858,0.68576 h 0.0143 l 0.13572,-0.70005 0.63575,-2.07156 h 0.54289 l -1.20007,3.65023 h -0.27859 l -0.93577,-2.35729 -0.13573,-0.58575 h -0.0214 l -0.14287,0.5929 -0.90006,2.35014 h -0.27859 l -1.24293,-3.65023 h 0.62147 l 0.70718,2.07871 0.12144,0.6929 h 0.007 l 0.17144,-0.70719 0.76434,-2.06442 z"
         style="font-style:normal;font-variant:normal;font-weight:normal;font-stretch:normal;font-size:7.14330101px;font-family:'PT Sans';-inkscape-font-specification:'PT Sans';stroke-width:0.41211349"
         id="path899" />
      <path
         d="m 231.96707,195.37191 q 0,0.36431 0.007,0.66432 0.007,0.29288 0.0643,0.57861 h -0.38574 l -0.14287,-0.50717 h -0.0286 q -0.14287,0.25001 -0.41431,0.41431 -0.27145,0.1643 -0.63575,0.1643 -0.71433,0 -1.06436,-0.45003 -0.34287,-0.45003 -0.34287,-1.40723 0,-0.91435 0.42859,-1.3858 0.43574,-0.4786 1.19293,-0.4786 0.26431,0 0.41432,0.0286 0.15715,0.0286 0.33573,0.0929 v -1.48581 h 0.57147 z m -1.44295,0.81433 q 0.36431,0 0.57861,-0.18572 0.21429,-0.19287 0.29287,-0.57861 v -1.77154 q -0.12858,-0.1 -0.29287,-0.14286 -0.1643,-0.0429 -0.43575,-0.0429 -0.49288,0 -0.77147,0.32859 -0.27859,0.32145 -0.27859,1.03578 0,0.29287 0.0429,0.54289 0.05,0.25001 0.15715,0.4286 0.10715,0.17858 0.27859,0.28573 0.17858,0.1 0.4286,0.1 z"
         style="font-style:normal;font-variant:normal;font-weight:normal;font-stretch:normal;font-size:7.14330101px;font-family:'PT Sans';-inkscape-font-specification:'PT Sans';stroke-width:0.41211349"
         id="path901" />
      <path
         d="m 233.1822,193.0289 h 0.57147 v 3.57166 h -0.57147 z m -0.12143,-1.08578 q 0,-0.16429 0.10715,-0.27859 0.11429,-0.12143 0.28573,-0.12143 0.17144,0 0.29288,0.12143 0.12143,0.1143 0.12143,0.27859 0,0.1643 -0.12143,0.27145 -0.12144,0.10715 -0.29288,0.10715 -0.17144,0 -0.28573,-0.10715 -0.10715,-0.10715 -0.10715,-0.27145 z"
         style="font-style:normal;font-variant:normal;font-weight:normal;font-stretch:normal;font-size:7.14330101px;font-family:'PT Sans';-inkscape-font-specification:'PT Sans';stroke-width:0.41211349"
         id="path903" />
      <path
         d="m 236.65798,193.57894 q -0.2143,-0.0714 -0.40717,-0.0714 -0.30716,0 -0.48574,0.17144 -0.17859,0.16429 -0.22144,0.42145 v 2.50016 h -0.57147 v -3.57166 h 0.40003 l 0.10715,0.43575 h 0.0286 q 0.13572,-0.24288 0.32145,-0.37146 0.19287,-0.13572 0.48574,-0.13572 0.20716,0 0.46432,0.0714 z"
         style="font-style:normal;font-variant:normal;font-weight:normal;font-stretch:normal;font-size:7.14330101px;font-family:'PT Sans';-inkscape-font-specification:'PT Sans';stroke-width:0.41211349"
         id="path905" />
      <path
         d="m 240.00707,196.31482 q -0.2143,0.17144 -0.54289,0.27145 -0.32145,0.10001 -0.68576,0.10001 -0.40717,0 -0.70718,-0.12858 -0.30002,-0.13573 -0.49289,-0.3786 -0.19287,-0.25001 -0.28573,-0.59289 -0.0929,-0.34288 -0.0929,-0.77148 0,-0.91434 0.40717,-1.39294 0.40717,-0.4786 1.16436,-0.4786 0.24287,0 0.48574,0.0571 0.24288,0.05 0.43575,0.20001 0.19286,0.15001 0.3143,0.4286 0.12144,0.27145 0.12144,0.72148 0,0.23572 -0.0429,0.52146 h -2.293 q 0,0.3143 0.0643,0.55717 0.0643,0.24288 0.20001,0.41432 0.13572,0.16429 0.35002,0.25715 0.22144,0.0857 0.53575,0.0857 0.24287,0 0.48574,-0.0857 0.24288,-0.0857 0.36431,-0.20001 z m -1.22865,-2.8716 q -0.42145,0 -0.67861,0.22144 -0.25002,0.22144 -0.30002,0.75719 h 1.77154 q 0,-0.54289 -0.20716,-0.75719 -0.20715,-0.22144 -0.58575,-0.22144 z"
         style="font-style:normal;font-variant:normal;font-weight:normal;font-stretch:normal;font-size:7.14330101px;font-family:'PT Sans';-inkscape-font-specification:'PT Sans';stroke-width:0.41211349"
         id="path907" />
      <path
         d="m 243.37938,196.36483 q -0.2143,0.15715 -0.50718,0.23573 -0.29287,0.0857 -0.61432,0.0857 -0.41431,0 -0.70004,-0.12858 -0.28574,-0.13573 -0.47146,-0.3786 -0.17858,-0.25001 -0.2643,-0.59289 -0.0786,-0.35003 -0.0786,-0.77148 0,-0.9072 0.40002,-1.3858 0.40003,-0.48574 1.15008,-0.48574 0.34287,0 0.5786,0.0571 0.24288,0.05 0.43575,0.15001 l -0.1643,0.49289 q -0.1643,-0.0929 -0.36431,-0.14287 -0.20001,-0.0571 -0.4286,-0.0571 -1.01435,0 -1.01435,1.37151 0,0.27145 0.05,0.52146 0.0571,0.24287 0.17858,0.43574 0.12858,0.18573 0.32859,0.30002 0.20716,0.11429 0.50718,0.11429 0.25715,0 0.45717,-0.0786 0.20715,-0.0786 0.33573,-0.17858 z"
         style="font-style:normal;font-variant:normal;font-weight:normal;font-stretch:normal;font-size:7.14330101px;font-family:'PT Sans';-inkscape-font-specification:'PT Sans';stroke-width:0.41211349"
         id="path909" />
      <path
         d="m 243.69491,193.0289 h 0.55718 v -0.70718 l 0.57146,-0.1643 v 0.87148 h 0.97149 v 0.50004 h -0.97149 v 1.97869 q 0,0.37145 0.0929,0.5286 0.0929,0.15001 0.31431,0.15001 0.18572,0 0.3143,-0.0357 0.12858,-0.0429 0.28574,-0.10715 l 0.12858,0.43574 q -0.19287,0.0929 -0.42146,0.15001 -0.22858,0.0572 -0.49289,0.0572 -0.43574,0 -0.61432,-0.24288 -0.17858,-0.25001 -0.17858,-0.82862 v -2.08584 h -0.55718 z"
         style="font-style:normal;font-variant:normal;font-weight:normal;font-stretch:normal;font-size:7.14330101px;font-family:'PT Sans';-inkscape-font-specification:'PT Sans';stroke-width:0.41211349"
         id="path911" />
      <path
         d="m 246.71542,193.0289 h 0.57146 v 3.57166 h -0.57146 z m -0.12144,-1.08578 q 0,-0.16429 0.10715,-0.27859 0.11429,-0.12143 0.28573,-0.12143 0.17144,0 0.29288,0.12143 0.12143,0.1143 0.12143,0.27859 0,0.1643 -0.12143,0.27145 -0.12144,0.10715 -0.29288,0.10715 -0.17144,0 -0.28573,-0.10715 -0.10715,-0.10715 -0.10715,-0.27145 z"
         style="font-style:normal;font-variant:normal;font-weight:normal;font-stretch:normal;font-size:7.14330101px;font-family:'PT Sans';-inkscape-font-specification:'PT Sans';stroke-width:0.41211349"
         id="path913" />
      <path
         d="m 248.30536,194.81473 q 0,-0.9072 0.40002,-1.3858 0.40717,-0.48574 1.16436,-0.48574 0.40003,0 0.6929,0.13572 0.30002,0.12858 0.49289,0.37859 0.19287,0.24288 0.28573,0.5929 0.0929,0.34288 0.0929,0.76433 0,0.9072 -0.40717,1.39294 -0.40003,0.47861 -1.15722,0.47861 -0.40002,0 -0.70004,-0.12858 -0.29288,-0.13573 -0.48575,-0.3786 -0.19286,-0.25001 -0.28573,-0.59289 -0.0929,-0.35003 -0.0929,-0.77148 z m 0.59289,0 q 0,0.27145 0.05,0.52146 0.0571,0.25002 0.17144,0.43574 0.11429,0.18573 0.30001,0.30002 0.18573,0.11429 0.45003,0.11429 0.97149,0.007 0.97149,-1.37151 0,-0.27859 -0.0572,-0.5286 -0.05,-0.25002 -0.16429,-0.43575 -0.11429,-0.18572 -0.30002,-0.29287 -0.18573,-0.11429 -0.45003,-0.11429 -0.97149,-0.007 -0.97149,1.37151 z"
         style="font-style:normal;font-variant:normal;font-weight:normal;font-stretch:normal;font-size:7.14330101px;font-family:'PT Sans';-inkscape-font-specification:'PT Sans';stroke-width:0.41211349"
         id="path915" />
      <path
         d="m 254.62116,196.60056 v -2.03585 q 0,-0.55717 -0.1643,-0.83576 -0.15715,-0.28573 -0.58575,-0.28573 -0.3786,0 -0.62861,0.20715 -0.24287,0.20001 -0.34288,0.50718 v 2.44301 h -0.57146 v -3.57166 h 0.40002 l 0.10715,0.43575 h 0.0286 q 0.17144,-0.22859 0.45717,-0.37146 0.29288,-0.15 0.69291,-0.15 0.29287,0 0.51431,0.0714 0.22145,0.0643 0.36431,0.23573 0.15001,0.17144 0.22144,0.46431 0.0786,0.28573 0.0786,0.72862 v 2.15728 z"
         style="font-style:normal;font-variant:normal;font-weight:normal;font-stretch:normal;font-size:7.14330101px;font-family:'PT Sans';-inkscape-font-specification:'PT Sans';stroke-width:0.41211349"
         id="path917" />
      <path
         d="m 256.03464,196.27196 q 0,-0.19287 0.10715,-0.30002 0.11429,-0.11429 0.30002,-0.11429 0.19287,0 0.30716,0.11429 0.11429,0.10715 0.11429,0.30002 0,0.18573 -0.11429,0.30002 -0.11429,0.1143 -0.30716,0.1143 -0.18573,0 -0.30002,-0.1143 -0.10715,-0.11429 -0.10715,-0.30002 z"
         style="font-style:normal;font-variant:normal;font-weight:normal;font-stretch:normal;font-size:7.14330101px;font-family:'PT Sans';-inkscape-font-specification:'PT Sans';stroke-width:0.41211349"
         id="path919" />
    </g>
    <g
       id="g872"
       transform="matrix(1.5438307,0,0,1.5576463,-66.117184,-81.444327)">
      <path
         inkscape:connector-curvature="0"
         id="path821"
         d="M 21.483572,146.66559 53.495205,128.18367 79.68654,143.30524 47.674908,161.78716 Z"
         style="fill:none;stroke:#000000;stroke-width:0.17781851px;stroke-linecap:butt;stroke-linejoin:miter;stroke-opacity:1" />
      <path
         inkscape:connector-curvature="0"
         id="path1112"
         d="M 84.712659,181.05438 102.67928,170.68135 84.712667,160.30831 66.746043,170.68135 Z"
         style="fill:#876759;fill-opacity:1;stroke:#000000;stroke-width:0.26458332px;stroke-linecap:butt;stroke-linejoin:miter;stroke-opacity:1" />
      <path
         inkscape:connector-curvature="0"
         id="path829"
         d="m 47.674908,161.78716 32.011632,-18.48192 5.8203,-3.36035 z"
         style="fill:none;stroke:#000000;stroke-width:0.17781851px;stroke-linecap:butt;stroke-linejoin:miter;stroke-opacity:1" />
      <path
         inkscape:connector-curvature="0"
         id="path854"
         d="M 53.495205,128.18367 H 41.85461 l -29.101483,16.80175 8.730445,1.68017 z"
         style="fill:#be9c7f;fill-opacity:1;stroke:#5e4c44;stroke-width:0.17781851px;stroke-linecap:butt;stroke-linejoin:miter;stroke-opacity:1" />
      <path
         inkscape:connector-curvature="0"
         id="path856"
         d="m 79.68654,143.30524 5.8203,-6.7207 -26.191339,-15.12158 -5.820296,6.72071 z"
         style="fill:#be9c7f;fill-opacity:1;stroke:#5e4c44;stroke-width:0.17781851px;stroke-linecap:butt;stroke-linejoin:miter;stroke-opacity:1" />
      <path
         inkscape:connector-curvature="0"
         id="path858"
         d="M 21.483571,159.11323 53.82349,140.44177 v -12.44764 l -32.339919,18.67146 z"
         style="fill:#9b7764;fill-opacity:1;stroke:none;stroke-width:0.21956255px;stroke-linecap:butt;stroke-linejoin:miter;stroke-opacity:1" />
      <path
         inkscape:connector-curvature="0"
         id="path833"
         d="M 47.674908,175.22856 21.483572,160.10699 v -13.4414 l 26.191336,15.12157 z"
         style="fill:#d3b49a;fill-opacity:1;stroke:#7d4747;stroke-width:0.17781851px;stroke-linecap:butt;stroke-linejoin:miter;stroke-opacity:1" />
      <path
         style="fill:#9b7764;fill-opacity:1;stroke:#000000;stroke-width:0.21956255px;stroke-linecap:butt;stroke-linejoin:miter;stroke-opacity:1"
         d="m 84.712669,143.71146 17.966621,10.37303 v 16.59686 L 84.712669,160.30831 Z"
         id="path868"
         inkscape:connector-curvature="0" />
      <path
         sodipodi:nodetypes="ccccc"
         inkscape:connector-curvature="0"
         id="path860"
         d="M 53.495205,140.63131 79.41589,155.40315 V 142.95551 L 53.495205,128.18367 Z"
         style="fill:#9b7764;fill-opacity:1;stroke:#523535;stroke-width:0.21956255px;stroke-linecap:butt;stroke-linejoin:miter;stroke-opacity:1" />
      <path
         inkscape:connector-curvature="0"
         id="path831"
         d="m 47.674908,161.78716 v 13.4414 L 79.68654,156.74664 v -13.4414 z"
         style="fill:#d3b49a;fill-opacity:1;stroke:#7d4747;stroke-width:0.17781851px;stroke-linecap:butt;stroke-linejoin:miter;stroke-opacity:1" />
      <path
         inkscape:connector-curvature="0"
         id="path872"
         d="m 84.712659,143.71146 -17.966616,10.37303 v 16.59686 l 17.966616,-10.37304 z"
         style="fill:#9b7764;fill-opacity:1;stroke:#000000;stroke-width:0.21956255px;stroke-linecap:butt;stroke-linejoin:miter;stroke-opacity:1" />
      <path
         inkscape:connector-curvature="0"
         id="path862"
         d="m 66.746043,154.08449 17.966616,10.37304 v 16.59685 L 66.746043,170.68135 Z"
         style="fill:#d3b49a;fill-opacity:1;stroke:#ab8073;stroke-width:0.21956255px;stroke-linecap:butt;stroke-linejoin:miter;stroke-opacity:1" />
      <path
         inkscape:connector-curvature="0"
         id="path825"
         d="m 21.483572,146.66559 -8.730445,1.68018 26.191336,15.12157 8.730445,-1.68018 z"
         style="fill:#be9c7f;fill-opacity:1;stroke:#5e4c44;stroke-width:0.17781851px;stroke-linecap:butt;stroke-linejoin:miter;stroke-opacity:1" />
      <path
         style="fill:#d3b49a;fill-opacity:1;stroke:#ab8073;stroke-width:0.21956255px;stroke-linecap:butt;stroke-linejoin:miter;stroke-opacity:1"
         d="m 102.67928,154.08449 -17.966621,10.37304 v 16.59685 l 17.966621,-10.37303 z"
         id="path864"
         inkscape:connector-curvature="0" />
      <path
         inkscape:connector-curvature="0"
         id="path874"
         d="m 84.712659,143.71146 7.18665,4.14921 -17.96662,10.37304 -7.186646,-4.14922 z"
         style="fill:#be9c7f;fill-opacity:1;stroke:#7d655a;stroke-width:0.21956255px;stroke-linecap:butt;stroke-linejoin:miter;stroke-opacity:1" />
      <path
         inkscape:connector-curvature="0"
         id="path880"
         d="m 66.746043,154.08449 -3.593327,6.22382 21.559943,12.44764 v -8.29842 z"
         style="fill:#be9c7f;fill-opacity:1;stroke:#7d655a;stroke-width:0.21956255px;stroke-linecap:butt;stroke-linejoin:miter;stroke-opacity:1" />
      <path
         inkscape:connector-curvature="0"
         id="path882"
         d="m 84.712659,143.71146 h 7.18665 l 17.966621,10.37303 h -7.18664 z"
         style="fill:#be9c7f;fill-opacity:1;stroke:#7d655a;stroke-width:0.21956255px;stroke-linecap:butt;stroke-linejoin:miter;stroke-opacity:1" />
      <path
         inkscape:connector-curvature="0"
         id="path1110"
         d="m 32.406431,153.00854 15.268477,8.77862 21.414263,-12.52039 -15.265683,-8.825 z"
         style="fill:#876759;fill-opacity:1;stroke:#523535;stroke-width:0.26458332px;stroke-linecap:butt;stroke-linejoin:miter;stroke-opacity:1" />
      <path
         inkscape:connector-curvature="0"
         id="path1116"
         d="m 84.712658,164.45753 2.417207,7.39351 17.888015,-10.32765 -2.33859,-7.4389 z"
         style="fill:#be9c7f;fill-opacity:1;stroke:#7d655a;stroke-width:0.26458332px;stroke-linecap:butt;stroke-linejoin:miter;stroke-opacity:1" />
    </g>
    <text
       xml:space="preserve"
       style="font-style:normal;font-variant:normal;font-weight:normal;font-stretch:normal;font-size:10.58333302px;line-height:1.25;font-family:'Pink Blue';-inkscape-font-specification:'Pink Blue';letter-spacing:0px;word-spacing:0px;fill:#000000;fill-opacity:1;stroke:none;stroke-width:0.26458332"
       x="171.89699"
       y="134.89325"
       id="text1064"><tspan
         sodipodi:role="line"
         id="tspan1062"
         x="171.89699"
         y="146.79184"
         style="stroke-width:0.26458332" /></text>
  </g>
</svg>
