<?xml version="1.0" encoding="UTF-8" standalone="no"?>
<!-- Created with Inkscape (http://www.inkscape.org/) -->

<svg
   xmlns:dc="http://purl.org/dc/elements/1.1/"
   xmlns:cc="http://creativecommons.org/ns#"
   xmlns:rdf="http://www.w3.org/1999/02/22-rdf-syntax-ns#"
   xmlns:svg="http://www.w3.org/2000/svg"
   xmlns="http://www.w3.org/2000/svg"
   xmlns:sodipodi="http://sodipodi.sourceforge.net/DTD/sodipodi-0.dtd"
   xmlns:inkscape="http://www.inkscape.org/namespaces/inkscape"
   width="153.05646mm"
   height="153.05646mm"
   viewBox="0 0 153.05647 153.05647"
   version="1.1"
   id="svg8"
   sodipodi:docname="avatar2.svg"
   inkscape:version="0.92.3 (2405546, 2018-03-11)"
   inkscape:export-filename="/home/janetyu/Desktop/college/html practice/avatar2.png"
   inkscape:export-xdpi="123.32009"
   inkscape:export-ydpi="123.32009">
  <defs
     id="defs2" />
  <sodipodi:namedview
     id="base"
     pagecolor="#ffffff"
     bordercolor="#666666"
     borderopacity="1.0"
     inkscape:pageopacity="0.0"
     inkscape:pageshadow="2"
     inkscape:zoom="0.98994949"
     inkscape:cx="359.68867"
     inkscape:cy="318.18713"
     inkscape:document-units="mm"
     inkscape:current-layer="layer1"
     showgrid="false"
     inkscape:window-width="1920"
     inkscape:window-height="965"
     inkscape:window-x="0"
     inkscape:window-y="35"
     inkscape:window-maximized="1"
     inkscape:snap-nodes="true"
     inkscape:snap-others="false"
     inkscape:object-paths="false"
     fit-margin-top="0"
     fit-margin-left="0"
     fit-margin-right="0"
     fit-margin-bottom="0" />
  <metadata
     id="metadata5">
    <rdf:RDF>
      <cc:Work
         rdf:about="">
        <dc:format>image/svg+xml</dc:format>
        <dc:type
           rdf:resource="http://purl.org/dc/dcmitype/StillImage" />
        <dc:title></dc:title>
      </cc:Work>
    </rdf:RDF>
  </metadata>
  <g
     inkscape:label="Layer 1"
     inkscape:groupmode="layer"
     id="layer1"
     transform="translate(-29.848282,-80.298737)">
    <circle
       style="opacity:1;fill:#d6d1b5;fill-opacity:1;stroke:none;stroke-width:9.01847839;stroke-linecap:round;stroke-linejoin:round;stroke-miterlimit:4;stroke-dasharray:none;stroke-opacity:1"
       id="path815"
       cx="106.37651"
       cy="156.82697"
       r="76.528229" />
    <path
       style="opacity:1;fill:#ffa0a0;fill-opacity:1;stroke:none;stroke-width:9.02441692;stroke-linecap:round;stroke-linejoin:round;stroke-miterlimit:4;stroke-dasharray:none;stroke-opacity:1"
       d="m 105.80197,188.94073 c -14.38214,0 -25.960551,11.27505 -25.960551,25.28035 v 8.08022 c 0,2.2546 0.3034,4.43673 0.867644,6.51359 19.584957,7.01499 37.594777,5.04726 53.699447,-0.75167 0.47441,-1.91509 1.50249,-3.70062 1.50249,-5.76192 v -8.08022 c 0,-14.0053 -11.57839,-25.28035 -25.96056,-25.28035 z m 29.51082,38.42895 c -67.474589,3.35043 -33.73729,1.67522 0,0 z m -54.601666,1.45258 c -31.073479,2.38204 -15.536739,1.19102 0,0 z"
       id="rect852"
       inkscape:connector-curvature="0"
       sodipodi:nodetypes="sssccsssscccc" />
    <g
       id="g890"
       transform="matrix(-1.2955642,0,0,1.2955642,245.91797,-48.224092)">
      <path
         inkscape:connector-curvature="0"
         style="opacity:1;fill:#e18282;fill-opacity:1;stroke:none;stroke-width:7.8999815;stroke-linecap:round;stroke-linejoin:round;stroke-miterlimit:4;stroke-dasharray:none;stroke-opacity:1"
         d="m 94.895648,187.90784 c 0.08044,-0.10917 0.07041,-0.24382 -0.02254,-0.3015 l -2.06538,-1.28185 a 3.7878135,6.7452194 38.493351 0 0 -0.136264,-0.10238 3.7878135,6.7452194 38.493351 0 0 -7.228232,3.41565 3.7878135,6.7452194 38.493351 0 0 -0.824006,7.38551 c 0.01256,0.0307 0.0306,0.0585 0.06021,0.0769 l 2.195097,1.36235 c 0.09291,0.0577 0.232461,0.0166 0.312859,-0.0925 z"
         id="path883" />
      <path
         sodipodi:nodetypes="cccc"
         style="fill:#e18282;fill-opacity:1;stroke:none;stroke-width:0.26458332px;stroke-linecap:butt;stroke-linejoin:miter;stroke-opacity:1"
         d="m 86.97959,198.4884 3.472934,1.992 c 1.095879,-4.00351 2.467051,-8.48977 4.443124,-12.57256 z"
         id="path886"
         inkscape:connector-curvature="0" />
      <path
         style="fill:#e18282;fill-opacity:1;stroke:none;stroke-width:0.26458332px;stroke-linecap:butt;stroke-linejoin:miter;stroke-opacity:1"
         d="m 86.97959,198.4884 -3.858768,-2.16549 0.502523,-2.67532 z"
         id="path888"
         inkscape:connector-curvature="0" />
    </g>
    <path
       style="opacity:1;fill:#f3ab7a;fill-opacity:1;stroke:none;stroke-width:8.56961632;stroke-linecap:round;stroke-linejoin:round;stroke-miterlimit:4;stroke-dasharray:none;stroke-opacity:1"
       d="m 132.6664,119.80803 c -1.69833,0.0409 -3.45829,0.74269 -5.24486,2.22541 -8.97666,7.44997 -21.12212,16.2003 -21.12212,36.18453 0,19.98426 9.45801,36.00837 21.12212,36.18456 0.15025,0.003 0.30023,6.7e-4 0.44989,-0.003 7.53994,1.36546 16.98192,-0.024 24.52653,-5.06948 -5.24405,-0.56895 -7.70044,-2.96952 -9.08112,-6.00206 3.69757,-6.40189 5.99482,-15.14958 5.96123,-25.11099 -0.0661,-19.56834 -7.44052,-38.63065 -16.61167,-38.40997 z"
       id="path923"
       inkscape:connector-curvature="0" />
    <path
       style="opacity:1;fill:#f3ab7a;fill-opacity:1;stroke:none;stroke-width:8.56961632;stroke-linecap:round;stroke-linejoin:round;stroke-miterlimit:4;stroke-dasharray:none;stroke-opacity:1"
       d="m 82.427702,120.89529 c -10.552361,-0.20838 -17.547061,16.15525 -16.395418,37.32268 0.500593,9.20101 2.380111,17.37731 5.34329,23.62203 -1.198344,4.00965 -3.434979,7.477 -9.883179,8.1766 8.911092,5.95929 20.470883,6.81972 28.414976,4.06254 l -0.01072,-0.0153 c 10.368839,-2.41694 18.379819,-17.45381 18.379819,-35.84577 0,-19.98425 -10.490943,-31.38235 -21.122096,-36.18454 -1.639318,-0.7405 -3.219199,-1.10838 -4.72668,-1.13814 z"
       id="path890"
       inkscape:connector-curvature="0" />
    <path
       sodipodi:nodetypes="ccccc"
       inkscape:connector-curvature="0"
       id="path892"
       d="m 138.22961,206.12484 c 1.00002,6.56391 1.35961,13.54102 0.3979,20.10494 l -4.219,1.83344 c -1.08393,-5.45761 -2.85451,-11.52733 -4.89845,-16.98492 z"
       style="fill:#ffd7c1;fill-opacity:1;stroke:none;stroke-width:0.34278467px;stroke-linecap:butt;stroke-linejoin:miter;stroke-opacity:1" />
    <rect
       style="opacity:1;fill:#ffd7c1;fill-opacity:1;stroke:none;stroke-width:8.56961632;stroke-linecap:round;stroke-linejoin:round;stroke-miterlimit:4;stroke-dasharray:none;stroke-opacity:1"
       id="rect819"
       width="64.884239"
       height="73.94355"
       x="75.556702"
       y="119.77163"
       ry="32.44212" />
    <ellipse
       style="opacity:1;fill:#f9f9f9;fill-opacity:1;stroke:none;stroke-width:8.56961632;stroke-linecap:round;stroke-linejoin:round;stroke-miterlimit:4;stroke-dasharray:none;stroke-opacity:1"
       id="path821"
       cx="92.968468"
       cy="151.11971"
       rx="9.2625837"
       ry="8.656621" />
    <ellipse
       ry="6.7149482"
       rx="7.1849942"
       cy="151.11971"
       cx="92.968468"
       id="ellipse831"
       style="opacity:1;fill:#6c5353;fill-opacity:1;stroke:none;stroke-width:6.64745903;stroke-linecap:round;stroke-linejoin:round;stroke-miterlimit:4;stroke-dasharray:none;stroke-opacity:1" />
    <g
       id="g959"
       transform="matrix(1.2955642,0,0,1.2955642,-30.069945,-46.852952)">
      <ellipse
         style="opacity:1;fill:#f9f9f9;fill-opacity:1;stroke:none;stroke-width:6.61458302;stroke-linecap:round;stroke-linejoin:round;stroke-miterlimit:4;stroke-dasharray:none;stroke-opacity:1"
         id="ellipse823"
         cx="118.60085"
         cy="152.80807"
         rx="7.1494594"
         ry="6.6817379" />
      <ellipse
         ry="5.1830301"
         rx="5.5458422"
         cy="152.80807"
         cx="118.46722"
         id="ellipse833"
         style="opacity:1;fill:#6c5353;fill-opacity:1;stroke:none;stroke-width:5.13093805;stroke-linecap:round;stroke-linejoin:round;stroke-miterlimit:4;stroke-dasharray:none;stroke-opacity:1" />
    </g>
    <ellipse
       style="opacity:1;fill:#f4ada5;fill-opacity:1;stroke:none;stroke-width:9.62268925;stroke-linecap:round;stroke-linejoin:round;stroke-miterlimit:4;stroke-dasharray:none;stroke-opacity:1"
       id="path841"
       cx="107.84394"
       cy="166.87476"
       rx="4.9342732"
       ry="2.5104196" />
    <path
       style="opacity:1;fill:#ef9c9c;fill-opacity:1;stroke:none;stroke-width:8.56961632;stroke-linecap:round;stroke-linejoin:round;stroke-miterlimit:4;stroke-dasharray:none;stroke-opacity:1"
       d="m 101.24336,173.45382 c -0.13187,0 -0.23834,0.10641 -0.23834,0.23836 v 2.93173 a 6.5506005,4.5895932 0 0 0 -0.0148,0.20621 6.5506005,4.5895932 0 0 0 6.55041,4.58943 6.5506005,4.5895932 0 0 0 6.5464,-4.4977 c 0.0189,-0.0342 0.0326,-0.0718 0.0326,-0.11393 v -3.11587 c 0,-0.13189 -0.10578,-0.23835 -0.23767,-0.23835 z"
       id="rect845"
       inkscape:connector-curvature="0" />
    <path
       style="opacity:1;fill:#e97878;fill-opacity:1;stroke:none;stroke-width:6.83280754;stroke-linecap:round;stroke-linejoin:round;stroke-miterlimit:4;stroke-dasharray:none;stroke-opacity:1"
       d="m 107.58785,177.8803 c -1.91527,0.001 -3.64095,1.09454 -4.61382,2.25045 l 0.0269,0.0194 c 1.2175,0.81408 2.83549,1.26862 4.51844,1.26937 1.76596,-0.001 3.45659,-0.50137 4.68853,-1.38789 -0.99148,-1.09971 -2.76345,-2.14976 -4.61994,-2.15137 z m 5.13612,3.99987 c 0.17481,0 0.31537,0.14057 0.31537,0.31534 l 6.6e-4,0.0335 c 0.005,-0.0555 0.008,-0.11104 0.013,-0.16671 -0.0502,-0.10729 -0.15715,-0.1821 -0.28385,-0.1821 z"
       id="path855"
       inkscape:connector-curvature="0"
       sodipodi:nodetypes="ccccccccccsc" />
    <path
       id="path878"
       d="m 104.94438,173.43462 c -0.0607,0 -0.10974,0.0371 -0.10974,0.0828 v 1.01832 a 3.0227981,1.5941536 0 0 0 -0.005,0.0717 3.0227981,1.5941536 0 0 0 3.02274,1.59408 3.0227981,1.5941536 0 0 0 3.02085,-1.56223 c 0.007,-0.0145 0.0165,-0.0249 0.0165,-0.0394 v -1.08227 c 0,-0.0461 -0.0489,-0.0828 -0.10944,-0.0828 z"
       style="opacity:1;fill:#ffffff;fill-opacity:1;stroke:none;stroke-width:3.4308629;stroke-linecap:round;stroke-linejoin:round;stroke-miterlimit:4;stroke-dasharray:none;stroke-opacity:1"
       inkscape:connector-curvature="0" />
    <ellipse
       style="opacity:1;fill:#f3ab7a;fill-opacity:1;stroke:none;stroke-width:4.26498985;stroke-linecap:round;stroke-linejoin:round;stroke-miterlimit:4;stroke-dasharray:none;stroke-opacity:1"
       id="path882"
       cx="115.54832"
       cy="122.1934"
       rx="20.915316"
       ry="13.417763" />
    <path
       style="opacity:1;fill:#f3ab7a;fill-opacity:1;stroke:none;stroke-width:2.69224763;stroke-linecap:round;stroke-linejoin:round;stroke-miterlimit:4;stroke-dasharray:none;stroke-opacity:1"
       d="m 98.807792,116.44745 c 3.399898,3.94236 0.547424,11.9752 -6.3712,17.94185 -6.918616,5.96663 -15.283436,7.60764 -18.683339,3.66528 -3.399909,-3.94235 -2.971291,-12.06176 3.947328,-18.0284 6.918615,-5.96663 17.707292,-7.52108 21.107211,-3.57873 z"
       id="ellipse925"
       inkscape:connector-curvature="0"
       sodipodi:nodetypes="cscsc" />
    <path
       sodipodi:nodetypes="cccccc"
       inkscape:connector-curvature="0"
       id="path944"
       d="m 119.62776,138.51559 c -0.38926,0.55033 -0.97675,1.55748 -0.41551,1.0777 2.58774,-0.53938 6.61712,0.34603 8.98502,1.11555 0.52643,0.27742 0.88936,0.37591 1.3608,0.57887 -1.04,-4.36841 -7.54321,-5.33157 -9.93034,-2.77224 z"
       style="opacity:1;fill:#957057;fill-opacity:1;stroke:none;stroke-width:9.94300652;stroke-linecap:round;stroke-linejoin:round;stroke-miterlimit:4;stroke-dasharray:none;stroke-opacity:1" />
    <path
       style="opacity:1;fill:#957057;fill-opacity:1;stroke:none;stroke-width:9.94300652;stroke-linecap:round;stroke-linejoin:round;stroke-miterlimit:4;stroke-dasharray:none;stroke-opacity:1"
       d="m 97.151145,138.68 c 0.389276,0.55034 0.976743,1.55749 0.415523,1.07771 -2.587761,-0.53939 -6.61712,0.34604 -8.98501,1.11556 -0.526438,0.27743 -0.889373,0.3759 -1.360816,0.57884 1.040008,-4.36837 7.543209,-5.33156 9.930347,-2.77221 z"
       id="path946"
       inkscape:connector-curvature="0"
       sodipodi:nodetypes="cccccc" />
    <rect
       style="opacity:1;fill:#cd767d;fill-opacity:1;stroke:none;stroke-width:9.44311714;stroke-linecap:round;stroke-linejoin:round;stroke-miterlimit:4;stroke-dasharray:none;stroke-opacity:1"
       id="rect948"
       width="1.4209162"
       height="8.689929"
       x="3.2610319"
       y="154.39294"
       ry="1.1317866"
       transform="rotate(-30)" />
    <rect
       transform="rotate(-30)"
       ry="1.1317866"
       y="154.77502"
       x="5.5142837"
       height="8.689929"
       width="1.4209162"
       id="rect950"
       style="opacity:1;fill:#cd767d;fill-opacity:1;stroke:none;stroke-width:9.44311714;stroke-linecap:round;stroke-linejoin:round;stroke-miterlimit:4;stroke-dasharray:none;stroke-opacity:1" />
    <ellipse
       style="opacity:1;fill:#ffbdbd;fill-opacity:1;stroke:none;stroke-width:6.03921413;stroke-linecap:round;stroke-linejoin:round;stroke-miterlimit:4;stroke-dasharray:none;stroke-opacity:1"
       id="path842"
       cx="130.11073"
       cy="162.70914"
       rx="5.5702505"
       ry="1.7935908" />
    <ellipse
       ry="1.6637416"
       rx="5.5702505"
       cy="163.09865"
       cx="87.433556"
       id="ellipse844"
       style="opacity:1;fill:#ffbdbd;fill-opacity:1;stroke:none;stroke-width:5.81649876;stroke-linecap:round;stroke-linejoin:round;stroke-miterlimit:4;stroke-dasharray:none;stroke-opacity:1" />
    <g
       id="g873"
       transform="matrix(1.2955642,0,0,1.2955642,-30.755514,-46.852952)">
      <path
         id="path862"
         d="m 94.895648,187.90784 c 0.08044,-0.10917 0.07041,-0.24382 -0.02254,-0.3015 l -2.06538,-1.28185 a 3.7878135,6.7452194 38.493351 0 0 -0.136264,-0.10238 3.7878135,6.7452194 38.493351 0 0 -7.228232,3.41565 3.7878135,6.7452194 38.493351 0 0 -0.824006,7.38551 c 0.01256,0.0307 0.0306,0.0585 0.06021,0.0769 l 2.195097,1.36235 c 0.09291,0.0577 0.232461,0.0166 0.312859,-0.0925 z"
         style="opacity:1;fill:#e18282;fill-opacity:1;stroke:none;stroke-width:7.8999815;stroke-linecap:round;stroke-linejoin:round;stroke-miterlimit:4;stroke-dasharray:none;stroke-opacity:1"
         inkscape:connector-curvature="0" />
      <path
         inkscape:connector-curvature="0"
         id="path864"
         d="m 86.97959,198.4884 3.472934,1.992 c 1.095879,-4.00351 2.467051,-8.48977 4.443124,-12.57256 z"
         style="fill:#e18282;fill-opacity:1;stroke:none;stroke-width:0.26458332px;stroke-linecap:butt;stroke-linejoin:miter;stroke-opacity:1"
         sodipodi:nodetypes="cccc" />
      <path
         inkscape:connector-curvature="0"
         id="path866"
         d="m 86.97959,198.4884 -3.858768,-2.16549 0.502523,-2.67532 z"
         style="fill:#e18282;fill-opacity:1;stroke:none;stroke-width:0.26458332px;stroke-linecap:butt;stroke-linejoin:miter;stroke-opacity:1" />
    </g>
    <path
       inkscape:connector-curvature="0"
       id="path848"
       d="m 106.5814,195.57456 -10.38798,-5.62682 -6.6656,10.47454 z"
       style="fill:#ffffff;fill-opacity:1;stroke:none;stroke-width:0.34278467px;stroke-linecap:butt;stroke-linejoin:miter;stroke-opacity:1" />
    <path
       style="fill:#ffffff;fill-opacity:1;stroke:none;stroke-width:0.34278467px;stroke-linecap:butt;stroke-linejoin:miter;stroke-opacity:1"
       d="m 108.4956,195.51335 10.38795,-5.62682 6.6656,10.47452 z"
       id="path850"
       inkscape:connector-curvature="0" />
    <rect
       style="opacity:1;fill:#ffffff;fill-opacity:1;stroke:none;stroke-width:7.45066738;stroke-linecap:round;stroke-linejoin:round;stroke-miterlimit:4;stroke-dasharray:none;stroke-opacity:1"
       id="rect846"
       width="2.7701185"
       height="8.3103561"
       x="106.06934"
       y="195.44165"
       ry="0" />
    <path
       style="fill:#d57777;fill-opacity:1;stroke:none;stroke-width:0.34278467px;stroke-linecap:butt;stroke-linejoin:miter;stroke-opacity:1"
       d="m 102.18373,193.19489 4.14709,2.24951 h 2.21893 l 3.70327,-1.97405 c -4.88579,0.54651 -7.47281,0.13347 -10.06929,-0.27546 z"
       id="path849"
       inkscape:connector-curvature="0"
       sodipodi:nodetypes="ccccc" />
    <ellipse
       ry="0.82892811"
       rx="0.84274364"
       cy="196.73705"
       cx="107.49385"
       id="ellipse857"
       style="opacity:1;fill:#d8bdbd;fill-opacity:1;stroke:none;stroke-width:7.73666191;stroke-linecap:round;stroke-linejoin:round;stroke-miterlimit:4;stroke-dasharray:none;stroke-opacity:1" />
    <ellipse
       ry="0.82892811"
       rx="0.84274364"
       cy="199.28099"
       cx="107.49385"
       id="ellipse859"
       style="opacity:1;fill:#d8bdbd;fill-opacity:1;stroke:none;stroke-width:7.73666191;stroke-linecap:round;stroke-linejoin:round;stroke-miterlimit:4;stroke-dasharray:none;stroke-opacity:1" />
    <path
       id="path865"
       d="m 111.5269,206.50808 c -0.13202,0 -0.23831,0.12769 -0.23831,0.28595 v 3.51748 a 6.5506005,5.5065566 0 0 0 -0.0149,0.24742 6.5506005,5.5065566 0 0 0 6.5504,5.50635 6.5506005,5.5065566 0 0 0 6.5464,-5.39631 c 0.019,-0.0411 0.0327,-0.086 0.0327,-0.13666 v -3.73837 c 0,-0.15825 -0.10588,-0.28595 -0.23766,-0.28595 z"
       style="opacity:1;fill:#e18282;fill-opacity:1;stroke:none;stroke-width:9.38673019;stroke-linecap:round;stroke-linejoin:round;stroke-miterlimit:4;stroke-dasharray:none;stroke-opacity:1"
       inkscape:connector-curvature="0" />
    <ellipse
       style="opacity:0.481;fill:#ffc7a0;fill-opacity:1;stroke:none;stroke-width:13.37696266;stroke-linecap:round;stroke-linejoin:round;stroke-miterlimit:4;stroke-dasharray:none;stroke-opacity:1"
       id="path881"
       cx="137.48917"
       cy="99.062569"
       rx="11.080474"
       ry="6.4861312"
       transform="rotate(8.8418675)" />
    <ellipse
       style="opacity:0.481;fill:#ffc7a0;fill-opacity:1;stroke:none;stroke-width:8.56961632;stroke-linecap:round;stroke-linejoin:round;stroke-miterlimit:4;stroke-dasharray:none;stroke-opacity:1"
       id="path885"
       cx="105.30548"
       cy="117.26192"
       rx="2.2036157"
       ry="2.0199811" />
    <ellipse
       style="opacity:1;fill:#916f6f;fill-opacity:1;stroke:none;stroke-width:2.52690816;stroke-linecap:round;stroke-linejoin:round;stroke-miterlimit:4;stroke-dasharray:none;stroke-opacity:1"
       id="ellipse854"
       cx="90.458054"
       cy="148.34958"
       rx="2.7312422"
       ry="2.5525627" />
    <ellipse
       ry="2.5525627"
       rx="2.7312422"
       cy="148.34958"
       cx="121.62189"
       id="ellipse856"
       style="opacity:1;fill:#916f6f;fill-opacity:1;stroke:none;stroke-width:2.52690816;stroke-linecap:round;stroke-linejoin:round;stroke-miterlimit:4;stroke-dasharray:none;stroke-opacity:1" />
    <path
       style="fill:#ffd7c1;fill-opacity:1;stroke:none;stroke-width:0.34278467px;stroke-linecap:butt;stroke-linejoin:miter;stroke-opacity:1"
       d="m 76.932845,207.49596 c -1.000027,6.56393 -1.125941,13.34429 -0.164162,19.90822 1.496098,0.67083 3.343985,1.40566 4.801127,1.8509 1.083949,-5.45761 2.038667,-11.34803 4.082629,-16.80565 z"
       id="path868"
       inkscape:connector-curvature="0"
       sodipodi:nodetypes="ccccc" />
  </g>
</svg>
